<?xml version="1.0" encoding="utf-8"?>
<svg width="14px" height="24px" viewBox="-5.188 -0.458 24 24" version="1.1" xmlns="http://www.w3.org/2000/svg">
  <g id="surface1">
    <path style="stroke: none; fill-rule: evenodd; fill-opacity: 1; fill: rgb(255, 255, 255);" d="M 6.769531 0.144531 C 6.753906 0.164062 6.730469 0.246094 6.71875 0.324219 C 6.691406 0.519531 6.640625 0.566406 6.46875 0.554688 C 6.394531 0.546875 6.285156 0.425781 6.285156 0.351562 C 6.285156 0.195312 6.257812 0.164062 6.128906 0.164062 C 5.960938 0.164062 5.949219 0.199219 5.949219 0.65625 L 5.949219 1.039062 L 6.285156 1.296875 L 6.285156 2.808594 L 6.390625 2.828125 C 6.5 2.847656 7.59375 2.820312 7.632812 2.796875 C 7.648438 2.785156 7.660156 2.472656 7.660156 2.101562 C 7.664062 1.308594 7.671875 1.269531 7.863281 1.128906 L 7.996094 1.035156 L 7.996094 0.195312 L 7.890625 0.179688 C 7.832031 0.167969 7.757812 0.15625 7.722656 0.148438 C 7.667969 0.140625 7.660156 0.152344 7.644531 0.296875 C 7.621094 0.515625 7.617188 0.519531 7.507812 0.539062 C 7.316406 0.574219 7.253906 0.515625 7.21875 0.269531 L 7.195312 0.125 L 6.996094 0.117188 C 6.859375 0.109375 6.789062 0.117188 6.769531 0.144531 M 8.976562 0.320312 C 8.941406 0.414062 8.90625 0.984375 8.933594 1.082031 C 8.941406 1.121094 9 1.207031 9.066406 1.269531 L 9.179688 1.390625 L 9.164062 1.570312 C 9.15625 1.667969 9.117188 1.964844 9.078125 2.230469 C 9.035156 2.492188 9.007812 2.757812 9.011719 2.820312 L 9.019531 2.933594 L 9.34375 2.984375 C 10.160156 3.105469 10.273438 3.117188 10.285156 3.105469 C 10.292969 3.101562 10.355469 2.808594 10.425781 2.464844 C 10.597656 1.613281 10.582031 1.648438 10.746094 1.511719 L 10.886719 1.390625 L 10.957031 1.0625 C 11.066406 0.535156 11.058594 0.5 10.824219 0.457031 C 10.707031 0.4375 10.691406 0.453125 10.644531 0.675781 C 10.59375 0.898438 10.246094 0.78125 10.199219 0.523438 C 10.152344 0.289062 9.875 0.238281 9.800781 0.453125 C 9.75 0.597656 9.699219 0.632812 9.539062 0.632812 C 9.371094 0.632812 9.355469 0.617188 9.332031 0.457031 C 9.300781 0.234375 9.046875 0.136719 8.976562 0.320312 M 4.664062 0.308594 C 4.648438 0.328125 4.628906 0.40625 4.617188 0.480469 C 4.59375 0.683594 4.492188 0.742188 4.277344 0.683594 C 4.1875 0.660156 4.171875 0.636719 4.105469 0.425781 C 4.082031 0.351562 4.070312 0.34375 3.953125 0.351562 C 3.722656 0.359375 3.710938 0.367188 3.691406 0.546875 C 3.65625 0.847656 3.269531 0.976562 3.210938 0.710938 C 3.167969 0.496094 3.140625 0.480469 3.015625 0.585938 L 2.941406 0.648438 L 2.988281 0.9375 C 3.046875 1.3125 3.109375 1.449219 3.21875 1.472656 C 3.390625 1.507812 3.445312 1.699219 3.59375 2.777344 C 3.644531 3.15625 3.605469 3.140625 4.183594 3.050781 C 4.453125 3.011719 4.738281 2.96875 4.820312 2.960938 C 4.996094 2.941406 4.988281 3.03125 4.878906 2.148438 C 4.78125 1.386719 4.78125 1.355469 4.914062 1.195312 L 5 1.089844 L 4.984375 0.828125 C 4.957031 0.402344 4.917969 0.292969 4.796875 0.28125 C 4.738281 0.277344 4.683594 0.289062 4.664062 0.308594 M 1.773438 0.828125 C 1.683594 0.855469 1.683594 0.855469 1.683594 1.03125 C 1.683594 1.332031 1.386719 1.351562 1.234375 1.0625 C 1.167969 0.933594 1.164062 0.933594 1.058594 0.949219 C 0.832031 0.984375 0.800781 1.019531 0.800781 1.230469 L 0.800781 1.417969 L 0.675781 1.480469 C 0.476562 1.578125 0.429688 1.566406 0.359375 1.40625 C 0.296875 1.253906 0.234375 1.230469 0.117188 1.3125 C 0.0351562 1.367188 0.0390625 1.449219 0.140625 1.769531 C 0.238281 2.082031 0.277344 2.132812 0.476562 2.226562 C 0.65625 2.3125 0.617188 2.226562 0.867188 3.167969 C 1.050781 3.871094 1.011719 3.835938 1.480469 3.679688 C 1.644531 3.628906 1.90625 3.546875 2.0625 3.507812 C 2.40625 3.414062 2.402344 3.429688 2.242188 2.886719 C 2.179688 2.671875 2.097656 2.390625 2.058594 2.261719 C 1.964844 1.9375 1.96875 1.839844 2.089844 1.703125 C 2.210938 1.5625 2.210938 1.515625 2.105469 1.144531 C 1.996094 0.757812 2.003906 0.765625 1.773438 0.828125 M 11.964844 0.859375 C 11.960938 0.878906 11.917969 1.050781 11.871094 1.238281 L 11.785156 1.585938 L 11.871094 1.722656 C 12 1.929688 12 1.964844 11.828125 2.644531 C 11.742188 2.988281 11.667969 3.308594 11.664062 3.363281 L 11.65625 3.457031 L 11.953125 3.554688 C 12.113281 3.609375 12.390625 3.703125 12.5625 3.761719 C 12.738281 3.816406 12.886719 3.859375 12.894531 3.851562 C 12.898438 3.84375 12.988281 3.554688 13.085938 3.207031 C 13.355469 2.269531 13.324219 2.335938 13.542969 2.242188 C 13.710938 2.171875 13.746094 2.117188 13.816406 1.835938 C 13.839844 1.730469 13.878906 1.609375 13.902344 1.570312 C 13.976562 1.429688 13.957031 1.359375 13.832031 1.296875 C 13.65625 1.207031 13.625 1.21875 13.566406 1.394531 C 13.464844 1.710938 13.097656 1.542969 13.152344 1.203125 L 13.175781 1.050781 L 13.050781 1.007812 C 12.835938 0.933594 12.789062 0.945312 12.710938 1.09375 L 12.640625 1.226562 L 12.246094 1.226562 L 12.261719 0.828125 L 12.121094 0.828125 C 12.03125 0.828125 11.972656 0.839844 11.964844 0.859375 M 7.058594 1.628906 C 7.117188 1.691406 7.152344 2.160156 7.113281 2.355469 C 7.09375 2.453125 7.09375 2.453125 6.941406 2.453125 L 6.789062 2.453125 L 6.789062 2.074219 C 6.789062 1.59375 6.882812 1.4375 7.058594 1.628906 M 5.917969 1.683594 C 5.902344 1.710938 5.882812 1.796875 5.871094 1.871094 C 5.847656 2.070312 5.839844 2.078125 5.589844 2.089844 C 5.355469 2.101562 5.273438 2.058594 5.273438 1.929688 C 5.273438 1.757812 5.21875 1.679688 5.089844 1.679688 C 4.984375 1.679688 4.964844 1.6875 4.964844 1.738281 C 4.964844 1.8125 5.105469 2.785156 5.125 2.847656 C 5.140625 2.902344 5.71875 2.902344 6.039062 2.847656 L 6.144531 2.832031 L 6.144531 2.246094 C 6.144531 1.738281 6.136719 1.65625 6.101562 1.644531 C 6.015625 1.613281 5.949219 1.625 5.917969 1.683594 M 7.800781 2.234375 L 7.800781 2.828125 L 8.226562 2.859375 C 8.878906 2.910156 8.824219 2.921875 8.859375 2.734375 C 8.894531 2.566406 8.960938 2.105469 8.992188 1.839844 L 9.011719 1.679688 L 8.730469 1.679688 L 8.71875 1.863281 C 8.707031 2.082031 8.691406 2.09375 8.410156 2.09375 C 8.148438 2.09375 8.121094 2.070312 8.09375 1.835938 L 8.074219 1.660156 L 7.9375 1.648438 L 7.800781 1.640625 L 7.800781 2.234375 M 9.957031 1.855469 C 10.007812 1.894531 9.984375 2.4375 9.925781 2.605469 C 9.886719 2.714844 9.886719 2.714844 9.753906 2.710938 C 9.546875 2.703125 9.527344 2.675781 9.550781 2.382812 C 9.585938 1.855469 9.730469 1.671875 9.957031 1.855469 M 4.300781 1.933594 C 4.367188 2.070312 4.425781 2.507812 4.390625 2.609375 C 4.359375 2.695312 4.226562 2.746094 4.113281 2.71875 C 3.964844 2.679688 3.882812 1.929688 4.015625 1.84375 C 4.109375 1.785156 4.25 1.828125 4.300781 1.933594 M 3.074219 1.984375 C 3.0625 2 3.0625 2.101562 3.074219 2.214844 L 3.09375 2.417969 L 2.933594 2.476562 C 2.632812 2.585938 2.566406 2.554688 2.496094 2.265625 L 2.460938 2.117188 L 2.347656 2.132812 C 2.148438 2.164062 2.148438 2.121094 2.34375 2.773438 C 2.542969 3.433594 2.484375 3.386719 2.976562 3.277344 C 3.457031 3.171875 3.480469 3.164062 3.480469 3.0625 C 3.480469 2.972656 3.347656 2.046875 3.324219 1.992188 C 3.308594 1.949219 3.097656 1.945312 3.074219 1.984375 M 10.648438 2.019531 C 10.582031 2.203125 10.449219 3.113281 10.484375 3.144531 C 10.515625 3.175781 11.351562 3.390625 11.4375 3.390625 C 11.511719 3.390625 11.523438 3.347656 11.6875 2.6875 C 11.78125 2.296875 11.785156 2.273438 11.738281 2.242188 C 11.617188 2.152344 11.53125 2.203125 11.472656 2.394531 C 11.417969 2.578125 11.347656 2.609375 11.125 2.550781 C 10.886719 2.488281 10.875 2.46875 10.898438 2.234375 C 10.917969 2.042969 10.917969 2.039062 10.84375 2.011719 C 10.742188 1.972656 10.660156 1.976562 10.648438 2.019531 M 1.511719 2.472656 C 1.589844 2.550781 1.765625 3.027344 1.765625 3.15625 C 1.765625 3.289062 1.523438 3.378906 1.445312 3.273438 C 1.179688 2.902344 1.238281 2.203125 1.511719 2.472656 M 12.6875 2.539062 C 12.75 2.617188 12.703125 2.878906 12.570312 3.230469 C 12.5 3.410156 12.480469 3.417969 12.292969 3.335938 L 12.171875 3.28125 L 12.191406 3.164062 C 12.285156 2.59375 12.511719 2.308594 12.6875 2.539062 M 6.460938 2.996094 C 6.390625 3.023438 6.429688 3.082031 6.691406 3.351562 L 6.957031 3.625 L 7.15625 3.417969 C 7.449219 3.117188 7.511719 3.03125 7.460938 3.003906 C 7.417969 2.976562 6.523438 2.96875 6.460938 2.996094 M 7.457031 3.308594 C 7.082031 3.6875 7.082031 3.691406 7.25 3.691406 C 7.652344 3.691406 8.796875 3.765625 9.210938 3.820312 C 9.386719 3.84375 9.382812 3.828125 9.148438 3.492188 C 8.8125 3.011719 8.890625 3.0625 8.386719 3.015625 C 8.148438 2.996094 7.917969 2.976562 7.871094 2.976562 C 7.796875 2.976562 7.738281 3.023438 7.457031 3.308594 M 5.421875 3.035156 C 5.070312 3.066406 5.066406 3.066406 4.671875 3.742188 C 4.597656 3.863281 4.574219 3.859375 5.21875 3.800781 C 5.535156 3.773438 6.007812 3.738281 6.265625 3.722656 C 6.527344 3.707031 6.746094 3.691406 6.753906 3.683594 C 6.773438 3.664062 6.261719 3.066406 6.199219 3.03125 C 6.140625 3 5.800781 3 5.421875 3.035156 M 4.320312 3.175781 C 4.128906 3.203125 3.929688 3.234375 3.878906 3.242188 C 3.828125 3.25 3.789062 3.265625 3.789062 3.277344 C 3.789062 3.308594 4.390625 3.832031 4.425781 3.832031 C 4.464844 3.832031 4.855469 3.203125 4.855469 3.136719 C 4.855469 3.105469 4.722656 3.113281 4.320312 3.175781 M 9.089844 3.136719 C 9.089844 3.179688 9.488281 3.753906 9.53125 3.765625 C 9.605469 3.796875 10.21875 3.285156 10.152344 3.25 C 10.035156 3.1875 9.089844 3.089844 9.089844 3.136719 M 3.042969 3.402344 C 2.476562 3.53125 2.558594 3.472656 2.324219 3.925781 C 2.210938 4.144531 2.128906 4.332031 2.140625 4.34375 C 2.152344 4.355469 2.398438 4.304688 2.6875 4.234375 C 2.976562 4.164062 3.4375 4.0625 3.714844 4.011719 C 4.324219 3.894531 4.296875 3.921875 4.039062 3.6875 C 3.613281 3.292969 3.574219 3.28125 3.042969 3.402344 M 10.277344 3.398438 C 10.113281 3.515625 9.703125 3.871094 9.726562 3.878906 C 9.738281 3.882812 10.039062 3.945312 10.394531 4.023438 C 10.75 4.097656 11.21875 4.210938 11.433594 4.269531 C 11.648438 4.332031 11.828125 4.375 11.835938 4.367188 C 11.859375 4.34375 11.554688 3.707031 11.484375 3.632812 C 11.28125 3.425781 10.464844 3.265625 10.277344 3.398438 M 1.878906 3.695312 C 1.515625 3.800781 1.207031 3.914062 1.207031 3.9375 C 1.207031 3.957031 1.882812 4.382812 1.917969 4.382812 C 1.9375 4.382812 2.300781 3.679688 2.300781 3.636719 C 2.300781 3.589844 2.160156 3.609375 1.878906 3.695312 M 11.699219 3.679688 C 11.699219 3.753906 12.035156 4.382812 12.074219 4.382812 C 12.140625 4.382812 12.695312 4.035156 12.695312 3.996094 C 12.695312 3.96875 12.550781 3.902344 12.246094 3.796875 C 11.765625 3.628906 11.699219 3.613281 11.699219 3.679688 M 5.78125 3.875 C 4.695312 3.953125 2.371094 4.371094 2.109375 4.539062 C 2.03125 4.589844 2.03125 4.589844 2.179688 5.46875 C 2.296875 6.175781 2.265625 6.136719 2.640625 6.050781 C 5.425781 5.40625 8.65625 5.390625 11.171875 6.007812 C 11.613281 6.117188 11.636719 6.117188 11.660156 5.988281 C 11.667969 5.929688 11.726562 5.625 11.785156 5.308594 C 11.945312 4.46875 11.996094 4.570312 11.324219 4.382812 C 9.773438 3.953125 7.574219 3.75 5.78125 3.875 M 5.765625 5.929688 C 4.652344 5.996094 2.226562 6.367188 2.363281 6.453125 C 2.414062 6.484375 11.53125 6.484375 11.53125 6.449219 C 11.53125 6.363281 10.109375 6.085938 9.203125 5.996094 C 8.214844 5.898438 6.777344 5.867188 5.765625 5.929688 M 0.695312 6.78125 C 0.648438 6.808594 0.644531 7.152344 0.644531 13.355469 L 0.644531 19.898438 L 13.128906 19.898438 L 13.128906 13.351562 C 13.128906 6.910156 13.128906 6.808594 13.074219 6.78125 C 13 6.742188 0.761719 6.742188 0.695312 6.78125 M 13.039062 11.5 L 13.03125 16.164062 L 12.941406 16.171875 C 12.773438 16.1875 12.746094 16.148438 12.722656 15.886719 L 12.703125 15.652344 L 12.070312 15.652344 L 12.050781 15.875 C 12.03125 16.09375 11.988281 16.1875 11.917969 16.164062 C 11.796875 16.121094 11.796875 16.105469 11.789062 18.019531 L 11.78125 19.835938 L 11.71875 19.824219 L 11.652344 19.808594 L 11.632812 17.492188 C 11.625 16.21875 11.617188 14.773438 11.617188 14.285156 L 11.617188 13.394531 L 9.792969 13.394531 L 9.792969 19.835938 L 9.726562 19.820312 L 9.660156 19.808594 L 9.644531 18.042969 C 9.628906 16.304688 9.628906 16.269531 9.570312 16.144531 C 9.535156 16.070312 9.503906 15.941406 9.5 15.855469 C 9.492188 15.765625 9.484375 15.683594 9.484375 15.675781 C 9.484375 15.664062 9.308594 15.652344 9.09375 15.652344 L 8.707031 15.652344 L 8.6875 15.855469 C 8.664062 16.117188 8.652344 16.148438 8.554688 16.167969 L 8.472656 16.183594 L 8.472656 19.835938 L 8.40625 19.824219 L 8.339844 19.808594 L 8.324219 17.023438 C 8.316406 15.488281 8.300781 14.210938 8.289062 14.1875 C 8.261719 14.117188 5.542969 14.109375 5.515625 14.179688 C 5.507812 14.207031 5.5 15.488281 5.5 17.035156 C 5.5 19.261719 5.492188 19.84375 5.464844 19.84375 C 5.359375 19.839844 5.359375 19.847656 5.339844 18 L 5.320312 16.203125 L 5.246094 16.164062 C 5.167969 16.125 5.136719 15.996094 5.132812 15.742188 L 5.132812 15.652344 L 4.757812 15.652344 C 4.320312 15.652344 4.339844 15.644531 4.3125 15.921875 C 4.300781 16.015625 4.273438 16.128906 4.246094 16.164062 C 4.203125 16.230469 4.199219 16.410156 4.1875 18.027344 L 4.171875 19.816406 L 4.050781 19.816406 L 4.03125 17.519531 C 4.019531 16.257812 4.011719 14.820312 4.011719 14.324219 L 4.011719 13.421875 L 2.214844 13.421875 L 2.1875 13.492188 C 2.171875 13.53125 2.160156 14.722656 2.15625 16.554688 C 2.152344 19.710938 2.152344 19.816406 2.085938 19.816406 C 2.054688 19.816406 2.046875 19.574219 2.046875 18.261719 C 2.046875 16.34375 2.039062 16.214844 1.933594 16.191406 C 1.8125 16.164062 1.773438 16.097656 1.75 15.875 L 1.726562 15.667969 L 1.449219 15.660156 C 1.117188 15.648438 1.105469 15.65625 1.085938 15.886719 C 1.058594 16.15625 0.933594 16.261719 0.769531 16.15625 C 0.722656 16.125 0.695312 12.371094 0.71875 9.335938 L 0.738281 6.835938 L 13.046875 6.835938 L 13.039062 11.5 M 6.285156 9.375 C 5.945312 10.050781 5.667969 10.617188 5.667969 10.632812 C 5.667969 10.65625 5.988281 10.664062 6.902344 10.664062 C 7.726562 10.664062 8.136719 10.65625 8.136719 10.636719 C 8.136719 10.613281 6.9375 8.191406 6.914062 8.160156 C 6.90625 8.152344 6.625 8.699219 6.285156 9.375 M 5.976562 11.945312 L 5.976562 13.0625 L 6.246094 13.0625 L 6.265625 12.726562 C 6.289062 12.277344 6.246094 12.308594 6.886719 12.308594 C 7.503906 12.308594 7.457031 12.277344 7.484375 12.707031 L 7.503906 13.050781 L 7.667969 13.058594 L 7.828125 13.066406 L 7.828125 10.832031 L 5.976562 10.832031 L 5.976562 11.945312 M 10.625 11.273438 C 10.585938 11.355469 10.351562 11.824219 10.101562 12.316406 C 9.855469 12.808594 9.652344 13.222656 9.652344 13.234375 C 9.652344 13.246094 10.117188 13.253906 10.6875 13.253906 C 11.671875 13.253906 11.726562 13.253906 11.726562 13.207031 C 11.726562 13.179688 11.496094 12.699219 11.210938 12.136719 L 10.695312 11.121094 L 10.625 11.273438 M 2.625 12.085938 C 2.1875 12.957031 2.046875 13.242188 2.046875 13.273438 C 2.046875 13.289062 3.007812 13.285156 3.597656 13.265625 C 4 13.25 4.125 13.238281 4.125 13.210938 C 4.125 13.191406 3.890625 12.71875 3.609375 12.160156 L 3.09375 11.148438 L 2.625 12.085938 M 6.996094 11.199219 C 7.0625 11.242188 7.09375 11.640625 7.046875 11.8125 C 6.984375 12.035156 6.734375 11.992188 6.699219 11.753906 C 6.640625 11.320312 6.785156 11.046875 6.996094 11.199219 M 4.65625 12.492188 C 4.65625 12.511719 4.703125 12.835938 4.753906 13.214844 C 4.808594 13.59375 4.855469 13.90625 4.855469 13.910156 C 4.855469 14.019531 8.789062 14.058594 8.917969 13.953125 C 8.960938 13.914062 8.984375 13.839844 9.019531 13.601562 C 9.058594 13.320312 9.144531 12.570312 9.144531 12.492188 C 9.144531 12.464844 9.042969 12.457031 8.714844 12.457031 L 8.285156 12.457031 L 8.269531 12.804688 C 8.25 13.234375 8.277344 13.210938 7.816406 13.210938 C 7.355469 13.214844 7.382812 13.238281 7.355469 12.8125 L 7.335938 12.46875 L 6.886719 12.460938 L 6.433594 12.457031 L 6.417969 12.804688 C 6.398438 13.234375 6.425781 13.210938 5.949219 13.210938 C 5.46875 13.210938 5.496094 13.234375 5.476562 12.804688 L 5.460938 12.457031 L 5.058594 12.457031 C 4.753906 12.457031 4.65625 12.464844 4.65625 12.492188 M 5.121094 14.257812 C 5.300781 14.417969 5.335938 14.421875 5.324219 14.269531 L 5.316406 14.152344 L 4.980469 14.136719 L 5.121094 14.257812 M 8.472656 14.277344 C 8.472656 14.453125 8.519531 14.4375 8.820312 14.164062 C 8.839844 14.148438 8.773438 14.136719 8.660156 14.136719 L 8.472656 14.136719 L 8.472656 14.277344 M 3.25 15.035156 C 3.34375 15.117188 3.355469 16.105469 3.269531 16.175781 C 3.207031 16.226562 2.945312 16.222656 2.902344 16.167969 C 2.820312 16.054688 2.832031 15.160156 2.917969 15.058594 C 3 14.964844 3.164062 14.953125 3.25 15.035156 M 10.875 15.132812 C 10.964844 15.230469 10.972656 16.242188 10.882812 16.289062 C 10.804688 16.328125 10.523438 16.304688 10.488281 16.253906 C 10.460938 16.207031 10.460938 15.457031 10.492188 15.300781 C 10.535156 15.082031 10.742188 14.992188 10.875 15.132812 M 7.230469 17.914062 C 7.519531 18.050781 7.542969 18.144531 7.566406 19.089844 L 7.582031 19.839844 L 7.523438 19.824219 C 7.46875 19.808594 7.460938 19.789062 7.460938 19.558594 C 7.449219 18.152344 7.402344 18.007812 6.929688 18.007812 C 6.484375 18.007812 6.453125 18.078125 6.429688 19.085938 C 6.414062 19.738281 6.40625 19.800781 6.363281 19.808594 C 6.300781 19.820312 6.285156 18.460938 6.34375 18.257812 C 6.4375 17.921875 6.882812 17.75 7.230469 17.914062 M 0.675781 20.144531 C 0.523438 20.238281 0.839844 20.863281 1.234375 21.25 C 3.019531 23 7.941406 23.472656 11.050781 22.195312 C 12.25 21.703125 13.023438 20.980469 13.117188 20.261719 L 13.136719 20.117188 L 6.925781 20.117188 C 3.152344 20.117188 0.699219 20.128906 0.675781 20.144531 "/>
  </g>
</svg>