<?xml version="1.0" encoding="UTF-8"?>
<svg xmlns="http://www.w3.org/2000/svg" xmlns:xlink="http://www.w3.org/1999/xlink" width="14px" height="24px" viewBox="0 0 14 24" version="1.1">
<defs>
<linearGradient id="linear0" gradientUnits="userSpaceOnUse" x1="7.003" y1="0.114" x2="7.003" y2="22.919" gradientTransform="matrix(1.008191,0,0,1.040042,-0.0595607,0.0220116)">
<stop offset="0" style="stop-color:rgb(43.137255%,56.078431%,40.784314%);stop-opacity:0.780392;"/>
<stop offset="1" style="stop-color:rgb(25.098039%,32.941176%,23.921569%);stop-opacity:0.780392;"/>
</linearGradient>
</defs>
<g id="surface1">
<path style=" stroke:none;fill-rule:evenodd;fill:url(#linear0);" d="M 6.765625 0.171875 C 6.75 0.195312 6.726562 0.277344 6.714844 0.359375 C 6.6875 0.5625 6.636719 0.609375 6.460938 0.601562 C 6.386719 0.589844 6.277344 0.464844 6.277344 0.386719 C 6.277344 0.226562 6.25 0.195312 6.121094 0.195312 C 5.949219 0.195312 5.9375 0.226562 5.9375 0.703125 L 5.9375 1.101562 L 6.277344 1.371094 L 6.277344 2.941406 L 6.382812 2.964844 C 6.492188 2.984375 7.597656 2.957031 7.632812 2.929688 C 7.652344 2.917969 7.664062 2.59375 7.664062 2.207031 C 7.667969 1.382812 7.675781 1.34375 7.867188 1.195312 L 8 1.097656 L 8 0.226562 L 7.894531 0.210938 C 7.835938 0.195312 7.761719 0.183594 7.726562 0.175781 C 7.667969 0.167969 7.664062 0.179688 7.648438 0.332031 C 7.625 0.558594 7.621094 0.5625 7.507812 0.582031 C 7.316406 0.617188 7.253906 0.558594 7.21875 0.304688 L 7.195312 0.152344 L 6.992188 0.144531 C 6.855469 0.132812 6.785156 0.144531 6.765625 0.171875 M 8.992188 0.355469 C 8.953125 0.453125 8.917969 1.046875 8.945312 1.148438 C 8.953125 1.1875 9.011719 1.277344 9.082031 1.34375 L 9.195312 1.46875 L 9.179688 1.65625 C 9.171875 1.753906 9.132812 2.066406 9.089844 2.339844 C 9.046875 2.613281 9.019531 2.890625 9.027344 2.957031 L 9.035156 3.074219 L 9.359375 3.125 C 10.183594 3.253906 10.296875 3.265625 10.308594 3.253906 C 10.316406 3.25 10.382812 2.941406 10.449219 2.585938 C 10.625 1.699219 10.609375 1.738281 10.773438 1.59375 L 10.914062 1.46875 L 10.988281 1.128906 C 11.097656 0.578125 11.089844 0.542969 10.851562 0.496094 C 10.734375 0.476562 10.71875 0.492188 10.671875 0.726562 C 10.621094 0.957031 10.269531 0.835938 10.222656 0.566406 C 10.175781 0.320312 9.894531 0.269531 9.820312 0.492188 C 9.769531 0.644531 9.71875 0.679688 9.554688 0.679688 C 9.386719 0.679688 9.371094 0.664062 9.347656 0.496094 C 9.316406 0.265625 9.0625 0.164062 8.992188 0.355469 M 4.640625 0.34375 C 4.628906 0.363281 4.605469 0.445312 4.59375 0.523438 C 4.570312 0.734375 4.46875 0.792969 4.25 0.734375 C 4.164062 0.710938 4.144531 0.683594 4.078125 0.464844 C 4.054688 0.386719 4.042969 0.378906 3.925781 0.386719 C 3.691406 0.394531 3.679688 0.402344 3.660156 0.589844 C 3.625 0.902344 3.238281 1.039062 3.175781 0.761719 C 3.132812 0.539062 3.105469 0.523438 2.980469 0.632812 L 2.90625 0.695312 L 2.953125 0.996094 C 3.011719 1.386719 3.074219 1.527344 3.183594 1.554688 C 3.359375 1.589844 3.414062 1.789062 3.5625 2.910156 C 3.617188 3.304688 3.574219 3.289062 4.15625 3.195312 C 4.429688 3.15625 4.71875 3.109375 4.800781 3.101562 C 4.976562 3.082031 4.96875 3.175781 4.859375 2.253906 C 4.761719 1.464844 4.761719 1.429688 4.894531 1.265625 L 4.980469 1.15625 L 4.964844 0.882812 C 4.9375 0.441406 4.898438 0.328125 4.777344 0.316406 C 4.71875 0.308594 4.660156 0.320312 4.640625 0.34375 M 1.726562 0.882812 C 1.636719 0.914062 1.636719 0.914062 1.636719 1.09375 C 1.636719 1.40625 1.335938 1.429688 1.183594 1.128906 C 1.117188 0.992188 1.113281 0.992188 1.007812 1.007812 C 0.777344 1.046875 0.746094 1.082031 0.746094 1.300781 L 0.746094 1.496094 L 0.621094 1.5625 C 0.421875 1.664062 0.371094 1.648438 0.300781 1.484375 C 0.238281 1.324219 0.175781 1.300781 0.0585938 1.386719 C -0.0234375 1.445312 -0.0195312 1.527344 0.0820312 1.863281 C 0.179688 2.1875 0.21875 2.238281 0.421875 2.335938 C 0.601562 2.425781 0.5625 2.335938 0.8125 3.316406 C 1 4.050781 0.960938 4.011719 1.433594 3.847656 C 1.597656 3.796875 1.859375 3.710938 2.019531 3.671875 C 2.363281 3.574219 2.363281 3.589844 2.199219 3.023438 C 2.136719 2.800781 2.054688 2.507812 2.015625 2.375 C 1.921875 2.035156 1.925781 1.9375 2.046875 1.792969 C 2.167969 1.648438 2.167969 1.601562 2.0625 1.210938 C 1.953125 0.808594 1.960938 0.820312 1.726562 0.882812 M 12.003906 0.914062 C 12 0.9375 11.953125 1.117188 11.910156 1.308594 L 11.820312 1.671875 L 11.910156 1.816406 C 12.039062 2.03125 12.039062 2.066406 11.863281 2.773438 C 11.777344 3.128906 11.703125 3.464844 11.699219 3.519531 L 11.691406 3.617188 L 11.992188 3.71875 C 12.152344 3.773438 12.433594 3.875 12.605469 3.933594 C 12.785156 3.988281 12.933594 4.035156 12.941406 4.027344 C 12.945312 4.019531 13.035156 3.71875 13.132812 3.359375 C 13.40625 2.382812 13.375 2.453125 13.59375 2.351562 C 13.761719 2.28125 13.800781 2.222656 13.871094 1.929688 C 13.890625 1.820312 13.933594 1.695312 13.957031 1.65625 C 14.03125 1.507812 14.011719 1.433594 13.882812 1.371094 C 13.707031 1.277344 13.675781 1.289062 13.617188 1.472656 C 13.511719 1.800781 13.144531 1.628906 13.199219 1.273438 L 13.222656 1.117188 L 13.097656 1.070312 C 12.882812 0.992188 12.832031 1.003906 12.753906 1.160156 L 12.683594 1.296875 L 12.285156 1.296875 L 12.300781 0.882812 L 12.160156 0.882812 C 12.070312 0.882812 12.007812 0.898438 12.003906 0.914062 M 7.054688 1.714844 C 7.117188 1.78125 7.152344 2.269531 7.113281 2.472656 C 7.09375 2.574219 7.09375 2.574219 6.9375 2.574219 L 6.785156 2.574219 L 6.785156 2.179688 C 6.785156 1.679688 6.878906 1.519531 7.054688 1.714844 M 5.90625 1.773438 C 5.890625 1.800781 5.871094 1.890625 5.859375 1.96875 C 5.835938 2.175781 5.828125 2.183594 5.574219 2.195312 C 5.339844 2.207031 5.257812 2.164062 5.257812 2.03125 C 5.257812 1.847656 5.199219 1.769531 5.070312 1.769531 C 4.964844 1.769531 4.945312 1.777344 4.945312 1.832031 C 4.945312 1.90625 5.089844 2.917969 5.105469 2.984375 C 5.121094 3.039062 5.707031 3.039062 6.027344 2.984375 L 6.136719 2.96875 L 6.136719 2.359375 C 6.136719 1.832031 6.125 1.742188 6.09375 1.734375 C 6.003906 1.699219 5.9375 1.710938 5.90625 1.773438 M 7.804688 2.347656 L 7.804688 2.964844 L 8.234375 2.996094 C 8.890625 3.050781 8.835938 3.0625 8.871094 2.863281 C 8.910156 2.691406 8.972656 2.210938 9.003906 1.9375 L 9.027344 1.769531 L 8.742188 1.769531 L 8.730469 1.957031 C 8.71875 2.1875 8.703125 2.199219 8.417969 2.199219 C 8.15625 2.199219 8.128906 2.175781 8.101562 1.929688 L 8.082031 1.75 L 7.941406 1.738281 L 7.804688 1.726562 L 7.804688 2.347656 M 9.980469 1.953125 C 10.027344 1.992188 10.007812 2.558594 9.945312 2.730469 C 9.90625 2.847656 9.90625 2.847656 9.773438 2.839844 C 9.566406 2.832031 9.542969 2.804688 9.570312 2.5 C 9.605469 1.953125 9.75 1.761719 9.980469 1.953125 M 4.277344 2.035156 C 4.34375 2.175781 4.402344 2.628906 4.367188 2.734375 C 4.335938 2.824219 4.203125 2.878906 4.085938 2.847656 C 3.9375 2.808594 3.855469 2.03125 3.988281 1.941406 C 4.082031 1.878906 4.222656 1.921875 4.277344 2.035156 M 3.039062 2.085938 C 3.027344 2.101562 3.027344 2.207031 3.039062 2.324219 L 3.058594 2.535156 L 2.898438 2.597656 C 2.59375 2.710938 2.527344 2.679688 2.457031 2.378906 L 2.421875 2.222656 L 2.304688 2.238281 C 2.105469 2.273438 2.105469 2.226562 2.304688 2.90625 C 2.503906 3.59375 2.441406 3.546875 2.941406 3.429688 C 3.425781 3.320312 3.449219 3.3125 3.449219 3.207031 C 3.449219 3.113281 3.316406 2.152344 3.292969 2.09375 C 3.277344 2.050781 3.0625 2.046875 3.039062 2.085938 M 10.675781 2.121094 C 10.609375 2.3125 10.472656 3.257812 10.511719 3.292969 C 10.542969 3.324219 11.386719 3.550781 11.472656 3.550781 C 11.546875 3.550781 11.558594 3.503906 11.722656 2.816406 C 11.816406 2.410156 11.820312 2.386719 11.773438 2.351562 C 11.652344 2.261719 11.566406 2.3125 11.503906 2.511719 C 11.449219 2.703125 11.378906 2.734375 11.15625 2.675781 C 10.914062 2.609375 10.902344 2.589844 10.929688 2.347656 C 10.945312 2.144531 10.945312 2.144531 10.871094 2.113281 C 10.769531 2.074219 10.6875 2.078125 10.675781 2.121094 M 1.464844 2.59375 C 1.542969 2.675781 1.71875 3.171875 1.71875 3.304688 C 1.71875 3.441406 1.476562 3.535156 1.398438 3.425781 C 1.128906 3.039062 1.1875 2.3125 1.464844 2.59375 M 12.730469 2.660156 C 12.792969 2.742188 12.746094 3.015625 12.613281 3.378906 C 12.542969 3.566406 12.523438 3.578125 12.332031 3.492188 L 12.210938 3.433594 L 12.230469 3.3125 C 12.324219 2.71875 12.554688 2.425781 12.730469 2.660156 M 6.453125 3.136719 C 6.382812 3.164062 6.421875 3.226562 6.6875 3.507812 L 6.953125 3.792969 L 7.152344 3.578125 C 7.449219 3.265625 7.511719 3.175781 7.460938 3.144531 C 7.417969 3.117188 6.515625 3.109375 6.453125 3.136719 M 7.457031 3.464844 C 7.078125 3.859375 7.078125 3.863281 7.25 3.863281 C 7.65625 3.863281 8.808594 3.941406 9.226562 3.996094 C 9.402344 4.019531 9.398438 4.003906 9.164062 3.652344 C 8.824219 3.15625 8.902344 3.207031 8.394531 3.160156 C 8.15625 3.136719 7.921875 3.117188 7.875 3.117188 C 7.800781 3.117188 7.742188 3.164062 7.457031 3.464844 M 5.40625 3.179688 C 5.050781 3.210938 5.046875 3.210938 4.652344 3.914062 C 4.574219 4.039062 4.550781 4.035156 5.199219 3.972656 C 5.519531 3.945312 5.996094 3.910156 6.257812 3.894531 C 6.519531 3.878906 6.742188 3.863281 6.75 3.851562 C 6.769531 3.832031 6.253906 3.210938 6.1875 3.175781 C 6.132812 3.144531 5.789062 3.144531 5.40625 3.179688 M 4.296875 3.324219 C 4.101562 3.351562 3.898438 3.386719 3.851562 3.394531 C 3.800781 3.402344 3.757812 3.417969 3.757812 3.429688 C 3.757812 3.464844 4.367188 4.007812 4.402344 4.007812 C 4.441406 4.007812 4.835938 3.351562 4.835938 3.285156 C 4.835938 3.253906 4.699219 3.257812 4.296875 3.324219 M 9.105469 3.285156 C 9.105469 3.332031 9.507812 3.925781 9.550781 3.941406 C 9.625 3.972656 10.242188 3.4375 10.175781 3.402344 C 10.058594 3.335938 9.105469 3.238281 9.105469 3.285156 M 3.007812 3.5625 C 2.4375 3.695312 2.519531 3.632812 2.285156 4.105469 C 2.167969 4.332031 2.085938 4.527344 2.097656 4.539062 C 2.109375 4.550781 2.359375 4.5 2.652344 4.425781 C 2.941406 4.351562 3.40625 4.25 3.6875 4.195312 C 4.300781 4.074219 4.273438 4.101562 4.011719 3.859375 C 3.582031 3.445312 3.542969 3.433594 3.007812 3.5625 M 10.300781 3.554688 C 10.136719 3.679688 9.722656 4.050781 9.746094 4.054688 C 9.757812 4.0625 10.058594 4.125 10.421875 4.207031 C 10.777344 4.285156 11.25 4.402344 11.46875 4.464844 C 11.683594 4.527344 11.863281 4.570312 11.871094 4.566406 C 11.898438 4.539062 11.589844 3.878906 11.519531 3.800781 C 11.3125 3.585938 10.492188 3.417969 10.300781 3.554688 M 1.835938 3.863281 C 1.46875 3.972656 1.15625 4.09375 1.15625 4.117188 C 1.15625 4.136719 1.839844 4.582031 1.871094 4.582031 C 1.894531 4.582031 2.261719 3.847656 2.261719 3.804688 C 2.261719 3.753906 2.117188 3.773438 1.835938 3.863281 M 11.734375 3.847656 C 11.734375 3.925781 12.074219 4.582031 12.113281 4.582031 C 12.179688 4.582031 12.738281 4.21875 12.738281 4.175781 C 12.738281 4.148438 12.59375 4.082031 12.285156 3.972656 C 11.800781 3.796875 11.734375 3.78125 11.734375 3.847656 M 5.769531 4.050781 C 4.671875 4.132812 2.328125 4.566406 2.066406 4.742188 C 1.988281 4.796875 1.988281 4.796875 2.136719 5.710938 C 2.253906 6.445312 2.222656 6.40625 2.601562 6.316406 C 5.410156 5.644531 8.667969 5.628906 11.203125 6.269531 C 11.648438 6.382812 11.671875 6.382812 11.695312 6.25 C 11.703125 6.1875 11.761719 5.871094 11.820312 5.542969 C 11.984375 4.671875 12.035156 4.773438 11.355469 4.582031 C 9.792969 4.132812 7.578125 3.921875 5.769531 4.050781 M 5.753906 6.1875 C 4.628906 6.257812 2.183594 6.644531 2.324219 6.734375 C 2.375 6.765625 11.566406 6.765625 11.566406 6.730469 C 11.566406 6.640625 10.132812 6.351562 9.214844 6.257812 C 8.222656 6.15625 6.773438 6.125 5.753906 6.1875 M 0.640625 7.074219 C 0.59375 7.105469 0.589844 7.460938 0.589844 13.910156 L 0.589844 20.71875 L 13.175781 20.71875 L 13.175781 13.910156 C 13.175781 7.207031 13.175781 7.105469 13.121094 7.074219 C 13.046875 7.035156 0.707031 7.035156 0.640625 7.074219 M 13.085938 11.980469 L 13.078125 16.832031 L 12.988281 16.84375 C 12.820312 16.859375 12.789062 16.816406 12.765625 16.546875 L 12.746094 16.300781 L 12.109375 16.300781 L 12.089844 16.53125 C 12.070312 16.761719 12.027344 16.859375 11.953125 16.832031 C 11.832031 16.789062 11.832031 16.769531 11.824219 18.761719 L 11.816406 20.652344 L 11.753906 20.640625 L 11.6875 20.625 L 11.667969 18.214844 C 11.660156 16.890625 11.652344 15.386719 11.652344 14.878906 L 11.652344 13.953125 L 9.8125 13.953125 L 9.8125 20.652344 L 9.746094 20.636719 L 9.679688 20.625 L 9.664062 18.789062 C 9.648438 16.980469 9.648438 16.941406 9.589844 16.8125 C 9.554688 16.734375 9.519531 16.601562 9.515625 16.511719 C 9.507812 16.417969 9.503906 16.332031 9.503906 16.324219 C 9.503906 16.3125 9.324219 16.300781 9.109375 16.300781 L 8.71875 16.300781 L 8.699219 16.511719 C 8.675781 16.785156 8.664062 16.816406 8.566406 16.835938 L 8.480469 16.855469 L 8.480469 20.652344 L 8.414062 20.640625 L 8.347656 20.625 L 8.332031 17.726562 C 8.324219 16.128906 8.308594 14.800781 8.296875 14.777344 C 8.269531 14.703125 5.527344 14.695312 5.5 14.769531 C 5.492188 14.796875 5.484375 16.128906 5.484375 17.738281 C 5.484375 20.054688 5.476562 20.660156 5.449219 20.660156 C 5.34375 20.65625 5.34375 20.664062 5.324219 18.742188 L 5.304688 16.875 L 5.230469 16.832031 C 5.148438 16.792969 5.117188 16.660156 5.117188 16.394531 L 5.117188 16.300781 L 4.738281 16.300781 C 4.296875 16.300781 4.316406 16.292969 4.289062 16.582031 C 4.277344 16.679688 4.25 16.796875 4.222656 16.832031 C 4.179688 16.902344 4.171875 17.089844 4.164062 18.769531 L 4.144531 20.632812 L 4.023438 20.632812 L 4.003906 18.242188 C 3.992188 16.929688 3.984375 15.4375 3.984375 14.917969 L 3.984375 13.980469 L 2.171875 13.980469 L 2.148438 14.054688 C 2.128906 14.09375 2.117188 15.332031 2.113281 17.238281 C 2.109375 20.523438 2.109375 20.632812 2.042969 20.632812 C 2.011719 20.632812 2.003906 20.378906 2.003906 19.015625 C 2.003906 17.019531 1.996094 16.886719 1.890625 16.863281 C 1.769531 16.832031 1.726562 16.765625 1.703125 16.53125 L 1.679688 16.316406 L 1.398438 16.308594 C 1.066406 16.296875 1.054688 16.304688 1.035156 16.546875 C 1.007812 16.824219 0.882812 16.9375 0.714844 16.824219 C 0.667969 16.792969 0.640625 12.886719 0.664062 9.730469 L 0.683594 7.132812 L 13.09375 7.132812 L 13.085938 11.980469 M 6.277344 9.773438 C 5.933594 10.476562 5.652344 11.0625 5.652344 11.082031 C 5.652344 11.105469 5.976562 11.113281 6.898438 11.113281 C 7.730469 11.113281 8.144531 11.105469 8.144531 11.085938 C 8.144531 11.058594 6.9375 8.542969 6.910156 8.507812 C 6.902344 8.5 6.617188 9.070312 6.277344 9.773438 M 5.964844 12.445312 L 5.964844 13.609375 L 6.238281 13.609375 L 6.257812 13.257812 C 6.28125 12.789062 6.238281 12.824219 6.882812 12.824219 C 7.503906 12.824219 7.457031 12.789062 7.484375 13.238281 L 7.503906 13.597656 L 7.667969 13.601562 L 7.832031 13.613281 L 7.832031 11.289062 L 5.964844 11.289062 L 5.964844 12.445312 M 10.652344 11.746094 C 10.613281 11.832031 10.375 12.320312 10.125 12.832031 C 9.878906 13.34375 9.671875 13.773438 9.671875 13.785156 C 9.671875 13.800781 10.140625 13.804688 10.714844 13.804688 C 11.707031 13.804688 11.761719 13.804688 11.761719 13.757812 C 11.761719 13.730469 11.53125 13.230469 11.242188 12.644531 L 10.722656 11.589844 L 10.652344 11.746094 M 2.585938 12.589844 C 2.148438 13.496094 2.003906 13.792969 2.003906 13.828125 C 2.003906 13.84375 2.972656 13.839844 3.566406 13.820312 C 3.972656 13.800781 4.097656 13.789062 4.097656 13.761719 C 4.097656 13.742188 3.863281 13.25 3.578125 12.667969 L 3.058594 11.617188 L 2.585938 12.589844 M 6.992188 11.667969 C 7.0625 11.714844 7.09375 12.128906 7.042969 12.308594 C 6.980469 12.539062 6.730469 12.492188 6.691406 12.246094 C 6.636719 11.796875 6.78125 11.511719 6.992188 11.667969 M 4.632812 13.015625 C 4.632812 13.035156 4.683594 13.371094 4.730469 13.765625 C 4.789062 14.160156 4.835938 14.484375 4.835938 14.488281 C 4.835938 14.601562 8.800781 14.644531 8.929688 14.535156 C 8.972656 14.492188 9 14.414062 9.035156 14.167969 C 9.074219 13.875 9.160156 13.097656 9.160156 13.015625 C 9.160156 12.988281 9.054688 12.976562 8.726562 12.976562 L 8.292969 12.976562 L 8.277344 13.339844 C 8.257812 13.785156 8.285156 13.761719 7.820312 13.761719 C 7.355469 13.765625 7.382812 13.789062 7.355469 13.347656 L 7.335938 12.988281 L 6.882812 12.980469 L 6.425781 12.976562 L 6.410156 13.339844 C 6.390625 13.785156 6.417969 13.761719 5.9375 13.761719 C 5.453125 13.761719 5.480469 13.785156 5.460938 13.339844 L 5.445312 12.976562 L 5.039062 12.976562 C 4.730469 12.976562 4.632812 12.988281 4.632812 13.015625 M 5.101562 14.851562 C 5.285156 15.019531 5.320312 15.023438 5.308594 14.863281 L 5.300781 14.742188 L 4.960938 14.726562 L 5.101562 14.851562 M 8.480469 14.871094 C 8.480469 15.054688 8.53125 15.039062 8.832031 14.753906 C 8.851562 14.738281 8.785156 14.726562 8.671875 14.726562 L 8.480469 14.726562 L 8.480469 14.871094 M 3.214844 15.660156 C 3.3125 15.746094 3.324219 16.769531 3.238281 16.847656 C 3.171875 16.898438 2.910156 16.894531 2.867188 16.835938 C 2.78125 16.71875 2.792969 15.789062 2.878906 15.683594 C 2.964844 15.585938 3.128906 15.574219 3.214844 15.660156 M 10.902344 15.761719 C 10.996094 15.863281 11 16.914062 10.910156 16.964844 C 10.832031 17.003906 10.550781 16.980469 10.515625 16.925781 C 10.484375 16.878906 10.484375 16.097656 10.519531 15.9375 C 10.5625 15.707031 10.769531 15.613281 10.902344 15.761719 M 7.230469 18.652344 C 7.523438 18.796875 7.542969 18.894531 7.566406 19.875 L 7.582031 20.65625 L 7.527344 20.640625 C 7.46875 20.625 7.460938 20.605469 7.460938 20.363281 C 7.449219 18.902344 7.402344 18.75 6.925781 18.75 C 6.476562 18.75 6.445312 18.824219 6.421875 19.871094 C 6.40625 20.550781 6.398438 20.617188 6.355469 20.625 C 6.292969 20.636719 6.277344 19.222656 6.335938 19.011719 C 6.429688 18.660156 6.878906 18.484375 7.230469 18.652344 M 0.621094 20.972656 C 0.46875 21.070312 0.789062 21.71875 1.183594 22.121094 C 2.984375 23.945312 7.945312 24.433594 11.082031 23.105469 C 12.289062 22.59375 13.070312 21.839844 13.164062 21.09375 L 13.183594 20.945312 L 6.921875 20.945312 C 3.117188 20.945312 0.644531 20.957031 0.621094 20.972656 "/>
</g>
</svg>
