<svg id="ebS5gOZR4pF1" xmlns="http://www.w3.org/2000/svg" xmlns:xlink="http://www.w3.org/1999/xlink" viewBox="0 0 14 24" shape-rendering="geometricPrecision" text-rendering="geometricPrecision"><defs><linearGradient id="ebS5gOZR4pF3-fill" x1="7.000794" y1="0.140577" x2="7.000794" y2="23.858689" spreadMethod="pad" gradientUnits="userSpaceOnUse" gradientTransform="translate(0 0)"><stop id="ebS5gOZR4pF3-fill-0" offset="0%" stop-color="rgba(110,143,104,0.780392)"/><stop id="ebS5gOZR4pF3-fill-1" offset="100%" stop-color="rgba(64,84,61,0.780392)"/></linearGradient></defs><g><path id="ebS5gOZR4pF3" d="M6.765625,0.171875c-.015625.023437-.039063.105469-.050781.1875-.027344.203125-.078125.25-.253906.242187-.074219-.011718-.183594-.136718-.183594-.214843c0-.160157-.027344-.191407-.15625-.191407-.171875,0-.183594.03125-.183594.507813v.398437l.339844.269532v1.570312l.105468.023438c.109376.019531,1.214844-.007813,1.25-.035156.019532-.011719.03125-.335938.03125-.722657.003907-.824219.011719-.863281.203126-1.011719L8,1.097656v-.871094l-.105469-.015624c-.058593-.015626-.132812-.027344-.167969-.035157-.058593-.007812-.0625.003907-.078124.15625-.023438.226563-.027344.230469-.140626.25-.191406.035157-.253906-.023437-.289062-.277343l-.023438-.152344-.203124-.007813c-.136719-.011719-.207032,0-.226563.027344m2.226563.183594c-.039063.097656-.074219.691406-.046876.792969.007813.039062.066407.128906.136719.195312l.113281.125-.015624.1875c-.007813.097656-.046876.410156-.089844.683594s-.070313.550781-.0625.617187l.007812.117188.324219.050781c.824219.128906.9375.140625.949219.128906.007812-.003906.074218-.3125.140625-.667968.175781-.886719.160156-.847657.324219-.992188l.140624-.125.074219-.339844c.109375-.550781.101563-.585937-.136719-.632812-.117187-.019532-.132812-.003906-.179687.230468-.050781.230469-.402344.109376-.449219-.160156-.046875-.246094-.328125-.296875-.402344-.074218-.050781.152343-.101562.1875-.265624.1875-.167969,0-.183594-.015626-.207032-.183594-.03125-.230469-.285156-.332032-.355468-.140625M4.640625,0.34375c-.011719.019531-.035156.101562-.046875.179688-.023438.210937-.125.269531-.34375.210937-.085938-.023437-.105469-.050781-.171875-.269531-.023437-.078125-.035156-.085938-.152344-.078125-.234375.007812-.246093.015625-.265625.203125-.035156.3125-.421875.449218-.484375.171875-.042969-.222657-.070312-.238281-.195312-.128907l-.074219.0625.046875.300782c.058594.390625.121094.53125.230469.558594.175781.035156.230468.234374.378906,1.355468.054688.394532.011719.378906.59375.285156.273438-.039062.5625-.085937.644531-.09375.175781-.019531.167969.074219.058594-.847656-.097656-.789062-.097656-.824218.035156-.988281l.085938-.109375-.015625-.273438c-.027344-.441406-.066406-.554687-.1875-.566406-.058594-.007812-.117188.003906-.136719.027344m-2.914063.539062c-.089843.03125-.089843.03125-.089843.210938c0,.3125-.300781.335938-.453125.035156-.066406-.136718-.070313-.136718-.175782-.121094-.230468.039063-.261718.074219-.261718.292969v.195313l-.125.066406c-.199219.101562-.25.085938-.320313-.078125-.0625-.160156-.125-.183594-.242187-.097656-.082031.058593-.078125.140625.023437.476562.097657.324219.136719.375.339844.472657.179687.089843.140625,0,.390625.980468.1875.734375.148438.695313.621094.53125.164062-.050781.425781-.136718.585937-.175781.34375-.097656.34375-.082031.179688-.648437-.0625-.222657-.144531-.515626-.183594-.648438-.09375-.339844-.089844-.4375.03125-.582031s.121094-.191407.015625-.582031c-.109375-.402344-.101562-.390626-.335938-.328126m10.277344.03125c-.003906.023438-.050781.203126-.09375.394532l-.089844.363281.089844.144531c.128906.214844.128906.25-.046875.957032-.085937.355468-.160156.691406-.164062.746093l-.007813.097657.300782.101562c.160156.054688.441406.15625.613281.214844.179687.054687.328125.101562.335937.09375.003906-.007813.09375-.308594.191406-.667969.273438-.976563.242188-.90625.460938-1.007813.167969-.070312.207031-.128906.277344-.421874.019531-.109376.0625-.234376.085937-.273438.074219-.148438.054688-.222656-.074219-.285156-.175781-.09375-.207031-.082032-.265624.101562-.105469.328125-.472657.15625-.417969-.199218l.023437-.15625-.125-.046876c-.214844-.078124-.265625-.066406-.34375.089844l-.070312.136719h-.398438l.015625-.414063h-.140625c-.089844,0-.152344.015626-.15625.03125m-4.949218.800782c.0625.066406.097656.554687.058593.757812-.019531.101563-.019531.101563-.175781.101563h-.152344v-.394531c0-.5.09375-.660157.269532-.464844M5.90625,1.773438c-.015625.027343-.035156.117187-.046875.195312-.023437.207031-.03125.214844-.285156.226562-.234375.011719-.316407-.03125-.316407-.164062c0-.183594-.058593-.261719-.1875-.261719-.105468,0-.125.007813-.125.0625c0,.074219.144532,1.085938.160157,1.152344.015625.054687.601562.054687.921875,0l.109375-.015625v-.609375c0-.527344-.011719-.617187-.042969-.625-.089844-.035156-.15625-.023437-.1875.039063m1.898438.574218v.617188l.429687.03125c.65625.054687.601563.066406.636719-.132813.039062-.171875.101562-.652343.132812-.925781l.023438-.167969h-.285156l-.011719.1875c-.011719.230469-.027344.242188-.3125.242188-.261719,0-.289063-.023438-.316407-.269531L8.082031,1.75l-.140625-.011719-.136718-.011719v.621094m2.175781-.394531c.046875.039063.027343.605469-.035157.777344-.039062.117187-.039062.117187-.171874.109375-.207032-.007813-.230469-.035156-.203126-.339844.035157-.546875.179688-.738281.410157-.546875m-5.703125.082031c.066406.140625.125.59375.089844.699219-.03125.089844-.164063.144531-.28125.113281-.148438-.039062-.230469-.816406-.097657-.90625.09375-.0625.234375-.019531.289063.09375m-1.238282.050782c-.011718.015624-.011718.121093,0,.238281l.019532.210937-.160156.0625c-.304688.113282-.371094.082032-.441407-.21875l-.035156-.15625-.117187.015625c-.199219.035157-.199219-.011719,0,.667969.199218.6875.136718.640625.636718.523438.484375-.109376.507813-.117188.507813-.222657c0-.09375-.132813-1.054687-.15625-1.113281-.015625-.042969-.230469-.046875-.253907-.007812m7.636719.035156c-.066406.191406-.203125,1.136718-.164062,1.171875.03125.03125.875.257812.960937.257812.074219,0,.085938-.046875.25-.734375.09375-.40625.097656-.429687.050782-.464844-.121094-.089843-.207032-.039062-.269532.160157-.054687.191406-.125.222656-.347656.164062-.242188-.066406-.253906-.085937-.226562-.328125.015624-.203125.015624-.203125-.058594-.234375-.101563-.039062-.183594-.035156-.195313.007813M1.464844,2.59375c.078125.082031.253906.578125.253906.710938c0,.136718-.242188.230468-.320312.121093-.269532-.386719-.210938-1.113281.066406-.832031m11.265625.066406c.0625.082032.015625.355469-.117188.71875-.070312.1875-.089843.199219-.28125.113282l-.121093-.058594.019531-.121094c.09375-.59375.324219-.886719.5-.652344m-6.277344.476563c-.070313.027343-.03125.089843.234375.371093l.265625.285157.199219-.214844c.296875-.3125.359375-.402344.308594-.433594-.042969-.027343-.945313-.035156-1.007813-.007812m1.003906.328125c-.378906.394531-.378906.398437-.207031.398437.40625,0,1.558594.078125,1.976562.132813.175782.023437.171876.007812-.0625-.34375-.339843-.496094-.261718-.445313-.769531-.492188-.238281-.023437-.472656-.042968-.519531-.042968-.074219,0-.132812.046874-.417969.347656M5.40625,3.179688c-.355469.03125-.359375.03125-.753906.734374-.078125.125-.101563.121094.546875.058594.320312-.027344.796875-.0625,1.058593-.078125s.484376-.03125.492188-.042969c.019531-.019531-.496094-.640624-.5625-.675781-.054688-.03125-.398438-.03125-.78125.003907m-1.109375.144531c-.195313.027343-.398437.0625-.445313.070312-.050781.007813-.09375.023438-.09375.035157c0,.035156.609376.578124.644532.578124.039062,0,.433594-.65625.433594-.722656c0-.03125-.136719-.027344-.539063.039063m4.808594-.039063c0,.046875.402343.640625.445312.65625.074219.03125.691407-.503906.625-.539062-.117187-.066406-1.070312-.164063-1.070312-.117188M3.007812,3.5625c-.570312.132812-.488281.070312-.722656.542969-.117187.226562-.199218.421875-.1875.433593s.261719-.039062.554688-.113281C2.941406,4.351562,3.40625,4.25,3.6875,4.195312c.613281-.121093.585938-.09375.324219-.335937-.429688-.414063-.46875-.425781-1.003907-.296875m7.292969-.007812c-.164062.125-.578125.496093-.554687.5.011718.007812.3125.070312.675781.152343.355469.078125.828125.195313,1.046875.257813.214844.0625.394531.105468.402344.101562.027344-.027344-.28125-.6875-.351563-.765625-.207031-.214843-1.027343-.382812-1.21875-.246093m-8.464843.308593c-.367188.109375-.679688.230469-.679688.253907c0,.019531.683594.464843.714844.464843.023437,0,.390625-.734375.390625-.777343c0-.050782-.144531-.03125-.425781.058593m9.898437-.015625c0,.078125.339844.734375.378906.734375.066407,0,.625-.363281.625-.40625c0-.027343-.144531-.09375-.453125-.203125-.484375-.175781-.550781-.191406-.550781-.125m-5.964844.203125c-1.097656.082031-3.441406.515625-3.703125.691407-.078125.054687-.078125.054687.070313.96875.117187.734374.085937.695312.464843.605468c2.808594-.671875,6.066407-.6875,8.601563-.046875.445313.113281.46875.113281.492187-.019531.007813-.0625.066407-.378906.125-.707031.164063-.871094.214844-.769531-.464843-.960938-1.5625-.449219-3.777344-.660156-5.585938-.53125M5.753906,6.1875c-1.125.070312-3.570312.457031-3.429687.546875.050781.03125,9.242187.03125,9.242187-.003906c0-.089844-1.433594-.378907-2.351562-.472657C8.222656,6.15625,6.773438,6.125,5.753906,6.1875m-5.113281.886719c-.046875.03125-.050781.386719-.050781,6.835937v6.808594h12.585937v-6.808594c0-6.703125,0-6.804687-.054687-6.835937-.074219-.039063-12.414063-.039063-12.480469,0m12.445313,4.90625l-.007813,4.851562-.089844.011719c-.167969.015625-.199219-.027344-.222656-.296875l-.019531-.246094h-.636719l-.019531.230469c-.019532.230469-.0625.328125-.136719.300781-.121094-.042969-.121094-.0625-.128906,1.929688l-.007813,1.890625-.0625-.011719L11.6875,20.625l-.019531-2.410156c-.007813-1.324219-.015625-2.828125-.015625-3.335938v-.925781h-1.839844v6.699219l-.066406-.015625L9.679688,20.625l-.015626-1.835938c-.015624-1.808593-.015624-1.847656-.074218-1.976562-.035156-.078125-.070313-.210938-.074219-.300781-.007813-.09375-.011719-.179688-.011719-.1875c0-.011719-.179687-.023438-.394531-.023438h-.390625l-.019531.210938c-.023438.273437-.035157.304687-.132813.324219l-.085937.019531v3.796875l-.066407-.011719L8.347656,20.625l-.015625-2.898438c-.007812-1.597656-.023437-2.925781-.035156-2.949218-.027344-.074219-2.769531-.082032-2.796875-.007813-.007812.027344-.015625,1.359375-.015625,2.96875c0,2.316407-.007813,2.921875-.035156,2.921875-.105469-.003906-.105469.003906-.125-1.917968L5.304688,16.875l-.074219-.042969c-.082031-.039062-.113281-.171875-.113281-.4375v-.09375h-.378907c-.441406,0-.421875-.007812-.449219.28125-.011718.097657-.039062.214844-.066406.25-.042968.070313-.050781.257813-.058594,1.9375l-.019531,1.863281h-.121093l-.019532-2.390624c-.011718-1.3125-.019531-2.804688-.019531-3.324219v-.9375h-1.8125l-.023437.074219c-.019532.039062-.03125,1.277343-.035157,3.183593-.003906,3.285157-.003906,3.394531-.070312,3.394531-.03125,0-.039063-.253906-.039063-1.617187c0-1.996094-.007812-2.128906-.113281-2.152344-.121094-.03125-.164063-.097656-.1875-.332031l-.023437-.214844-.28125-.007812c-.332032-.011719-.34375-.003906-.363282.238281-.027344.277344-.152344.390625-.320312.277344-.046875-.03125-.074219-3.9375-.050782-7.09375l.019532-2.597657h12.410156l-.007812,4.847657M6.277344,9.773438c-.34375.703124-.625,1.289062-.625,1.308593c0,.023438.324218.03125,1.246094.03125.832031,0,1.246093-.007812,1.246093-.027343c0-.027344-1.207031-2.542969-1.234375-2.578126-.007812-.007812-.292968.5625-.632812,1.265626m-.3125,2.671874v1.164063h.273437l.019531-.351563c.023438-.46875-.019531-.433593.625-.433593.621094,0,.574219-.035157.601563.414062l.019531.359375.164063.003906.164062.011719v-2.324219h-1.867187v1.15625m4.6875-.699218c-.039063.085937-.277344.574218-.527344,1.085937-.246094.511719-.453125.941407-.453125.953125c0,.015625.46875.019532,1.042969.019532.992187,0,1.046875,0,1.046875-.046876c0-.027343-.230469-.527343-.519531-1.113281l-.519532-1.054687-.070312.15625m-8.066406.84375c-.4375.90625-.582032,1.203125-.582032,1.238281c0,.015625.96875.011719,1.5625-.007813.40625-.019531.53125-.03125.53125-.058593c0-.019531-.234375-.511719-.519531-1.09375l-.519531-1.050781-.472656.972656m4.40625-.921875c.070312.046875.101562.460937.050781.640625-.0625.230468-.3125.183594-.351563-.0625-.054687-.449219.089844-.734375.300782-.578125M4.632812,13.015625c0,.019531.050782.355469.097657.75.058593.394531.105469.71875.105469.722656c0,.113281,3.964843.15625,4.09375.046875.042968-.042968.070312-.121094.105468-.367187.039063-.292969.125-1.070313.125-1.152344c0-.027344-.105468-.039063-.433594-.039063h-.433593l-.015625.363282c-.019532.445312.007812.421875-.457032.421875-.464843.003906-.4375.027343-.464843-.414063l-.019531-.359375-.453126-.007812-.457031-.003907-.015625.363282c-.019531.445312.007813.421875-.472656.421875-.484375,0-.457031.023437-.476562-.421875l-.015626-.363282h-.40625c-.308593,0-.40625.011719-.40625.039063m.46875,1.835937c.183594.167969.21875.171876.207032.011719l-.007813-.121093-.339843-.015626.140624.125m3.378907.019532c0,.183594.050781.167968.351562-.117188.019531-.015625-.046875-.027344-.160156-.027344h-.191406v.144532m-5.265625.789062c.097656.085938.109375,1.109375.023437,1.1875-.066406.050782-.328125.046875-.371093-.011718-.085938-.117188-.074219-1.046876.011718-1.152344.085938-.097656.25-.109375.335938-.023438m7.6875.101563c.09375.101562.097656,1.152343.007812,1.203125-.078125.039062-.359375.015625-.394531-.039063-.03125-.046875-.03125-.828125.003906-.988281.042969-.230469.25-.324219.382813-.175781M7.230469,18.652344c.292969.144531.3125.242187.335937,1.222656l.015625.78125-.054687-.015625c-.058594-.015625-.066406-.035156-.066406-.277344C7.449219,18.902344,7.402344,18.75,6.925781,18.75c-.449219,0-.480469.074219-.503906,1.121094-.015625.679687-.023437.746094-.066406.753906-.0625.011719-.078125-1.402344-.019531-1.613281.09375-.351563.542968-.527344.894531-.359375M0.621094,20.972656c-.152344.097656.167968.746094.5625,1.148438c1.800781,1.824218,6.761718,2.3125,9.898437.984375c1.207031-.511719,1.988281-1.265625,2.082031-2.011719l.019532-.148438h-6.261719c-3.804687,0-6.277344.011719-6.300781.027344" transform="matrix(.05 0 0 0.05 6.650598 11.399605)" opacity="0.45" fill="url(#ebS5gOZR4pF3-fill)" fill-rule="evenodd"/></g>
<script><![CDATA[
!function(t,n){"object"==typeof exports&&"undefined"!=typeof module?module.exports=n():"function"==typeof define&&define.amd?define(n):((t="undefined"!=typeof globalThis?globalThis:t||self).__SVGATOR_PLAYER__=t.__SVGATOR_PLAYER__||{},t.__SVGATOR_PLAYER__["5c7f360c"]=n())}(this,(function(){"use strict";function t(t,n){var e=Object.keys(t);if(Object.getOwnPropertySymbols){var r=Object.getOwnPropertySymbols(t);n&&(r=r.filter((function(n){return Object.getOwnPropertyDescriptor(t,n).enumerable}))),e.push.apply(e,r)}return e}function n(n){for(var e=1;e<arguments.length;e++){var r=null!=arguments[e]?arguments[e]:{};e%2?t(Object(r),!0).forEach((function(t){o(n,t,r[t])})):Object.getOwnPropertyDescriptors?Object.defineProperties(n,Object.getOwnPropertyDescriptors(r)):t(Object(r)).forEach((function(t){Object.defineProperty(n,t,Object.getOwnPropertyDescriptor(r,t))}))}return n}function e(t){return(e="function"==typeof Symbol&&"symbol"==typeof Symbol.iterator?function(t){return typeof t}:function(t){return t&&"function"==typeof Symbol&&t.constructor===Symbol&&t!==Symbol.prototype?"symbol":typeof t})(t)}function r(t,n){if(!(t instanceof n))throw new TypeError("Cannot call a class as a function")}function i(t,n){for(var e=0;e<n.length;e++){var r=n[e];r.enumerable=r.enumerable||!1,r.configurable=!0,"value"in r&&(r.writable=!0),Object.defineProperty(t,r.key,r)}}function u(t,n,e){return n&&i(t.prototype,n),e&&i(t,e),t}function o(t,n,e){return n in t?Object.defineProperty(t,n,{value:e,enumerable:!0,configurable:!0,writable:!0}):t[n]=e,t}function a(t){return(a=Object.setPrototypeOf?Object.getPrototypeOf:function(t){return t.__proto__||Object.getPrototypeOf(t)})(t)}function l(t,n){return(l=Object.setPrototypeOf||function(t,n){return t.__proto__=n,t})(t,n)}function s(){if("undefined"==typeof Reflect||!Reflect.construct)return!1;if(Reflect.construct.sham)return!1;if("function"==typeof Proxy)return!0;try{return Boolean.prototype.valueOf.call(Reflect.construct(Boolean,[],(function(){}))),!0}catch(t){return!1}}function f(t,n,e){return(f=s()?Reflect.construct:function(t,n,e){var r=[null];r.push.apply(r,n);var i=new(Function.bind.apply(t,r));return e&&l(i,e.prototype),i}).apply(null,arguments)}function c(t,n){if(n&&("object"==typeof n||"function"==typeof n))return n;if(void 0!==n)throw new TypeError("Derived constructors may only return object or undefined");return function(t){if(void 0===t)throw new ReferenceError("this hasn't been initialised - super() hasn't been called");return t}(t)}function h(t,n,e){return(h="undefined"!=typeof Reflect&&Reflect.get?Reflect.get:function(t,n,e){var r=function(t,n){for(;!Object.prototype.hasOwnProperty.call(t,n)&&null!==(t=a(t)););return t}(t,n);if(r){var i=Object.getOwnPropertyDescriptor(r,n);return i.get?i.get.call(e):i.value}})(t,n,e||t)}function v(t){return function(t){if(Array.isArray(t))return y(t)}(t)||function(t){if("undefined"!=typeof Symbol&&null!=t[Symbol.iterator]||null!=t["@@iterator"])return Array.from(t)}(t)||function(t,n){if(!t)return;if("string"==typeof t)return y(t,n);var e=Object.prototype.toString.call(t).slice(8,-1);"Object"===e&&t.constructor&&(e=t.constructor.name);if("Map"===e||"Set"===e)return Array.from(t);if("Arguments"===e||/^(?:Ui|I)nt(?:8|16|32)(?:Clamped)?Array$/.test(e))return y(t,n)}(t)||function(){throw new TypeError("Invalid attempt to spread non-iterable instance.\nIn order to be iterable, non-array objects must have a [Symbol.iterator]() method.")}()}function y(t,n){(null==n||n>t.length)&&(n=t.length);for(var e=0,r=new Array(n);e<n;e++)r[e]=t[e];return r}Number.isInteger||(Number.isInteger=function(t){return"number"==typeof t&&isFinite(t)&&Math.floor(t)===t}),Number.EPSILON||(Number.EPSILON=2220446049250313e-31);var g=d(Math.pow(10,-6));function d(t){var n=arguments.length>1&&void 0!==arguments[1]?arguments[1]:6;if(Number.isInteger(t))return t;var e=Math.pow(10,n);return Math.round((+t+Number.EPSILON)*e)/e}function p(t,n){var e=arguments.length>2&&void 0!==arguments[2]?arguments[2]:g;return Math.abs(t-n)<e}var m=Math.PI/180;function b(t){return t}function w(t,n,e){var r=1-e;return 3*e*r*(t*r+n*e)+e*e*e}function x(){var t=arguments.length>0&&void 0!==arguments[0]?arguments[0]:0,n=arguments.length>1&&void 0!==arguments[1]?arguments[1]:0,e=arguments.length>2&&void 0!==arguments[2]?arguments[2]:1,r=arguments.length>3&&void 0!==arguments[3]?arguments[3]:1;return t<0||t>1||e<0||e>1?null:p(t,n)&&p(e,r)?b:function(i){if(i<=0)return t>0?i*n/t:0===n&&e>0?i*r/e:0;if(i>=1)return e<1?1+(i-1)*(r-1)/(e-1):1===e&&t<1?1+(i-1)*(n-1)/(t-1):1;for(var u,o=0,a=1;o<a;){var l=w(t,e,u=(o+a)/2);if(p(i,l))break;l<i?o=u:a=u}return w(n,r,u)}}function A(){return 1}function k(t){return 1===t?1:0}function _(){var t=arguments.length>0&&void 0!==arguments[0]?arguments[0]:1,n=arguments.length>1&&void 0!==arguments[1]?arguments[1]:0;if(1===t){if(0===n)return k;if(1===n)return A}var e=1/t;return function(t){return t>=1?1:(t+=n*e)-t%e}}var S=Math.sin,O=Math.cos,j=Math.acos,M=Math.asin,P=Math.tan,E=Math.atan2,I=Math.PI/180,R=180/Math.PI,F=Math.sqrt,N=function(){function t(){var n=arguments.length>0&&void 0!==arguments[0]?arguments[0]:1,e=arguments.length>1&&void 0!==arguments[1]?arguments[1]:0,i=arguments.length>2&&void 0!==arguments[2]?arguments[2]:0,u=arguments.length>3&&void 0!==arguments[3]?arguments[3]:1,o=arguments.length>4&&void 0!==arguments[4]?arguments[4]:0,a=arguments.length>5&&void 0!==arguments[5]?arguments[5]:0;r(this,t),this.m=[n,e,i,u,o,a],this.i=null,this.w=null,this.s=null}return u(t,[{key:"determinant",get:function(){var t=this.m;return t[0]*t[3]-t[1]*t[2]}},{key:"isIdentity",get:function(){if(null===this.i){var t=this.m;this.i=1===t[0]&&0===t[1]&&0===t[2]&&1===t[3]&&0===t[4]&&0===t[5]}return this.i}},{key:"point",value:function(t,n){var e=this.m;return{x:e[0]*t+e[2]*n+e[4],y:e[1]*t+e[3]*n+e[5]}}},{key:"translateSelf",value:function(){var t=arguments.length>0&&void 0!==arguments[0]?arguments[0]:0,n=arguments.length>1&&void 0!==arguments[1]?arguments[1]:0;if(!t&&!n)return this;var e=this.m;return e[4]+=e[0]*t+e[2]*n,e[5]+=e[1]*t+e[3]*n,this.w=this.s=this.i=null,this}},{key:"rotateSelf",value:function(){var t=arguments.length>0&&void 0!==arguments[0]?arguments[0]:0;if(t%=360){var n=S(t*=I),e=O(t),r=this.m,i=r[0],u=r[1];r[0]=i*e+r[2]*n,r[1]=u*e+r[3]*n,r[2]=r[2]*e-i*n,r[3]=r[3]*e-u*n,this.w=this.s=this.i=null}return this}},{key:"scaleSelf",value:function(){var t=arguments.length>0&&void 0!==arguments[0]?arguments[0]:1,n=arguments.length>1&&void 0!==arguments[1]?arguments[1]:1;if(1!==t||1!==n){var e=this.m;e[0]*=t,e[1]*=t,e[2]*=n,e[3]*=n,this.w=this.s=this.i=null}return this}},{key:"skewSelf",value:function(t,n){if(n%=360,(t%=360)||n){var e=this.m,r=e[0],i=e[1],u=e[2],o=e[3];t&&(t=P(t*I),e[2]+=r*t,e[3]+=i*t),n&&(n=P(n*I),e[0]+=u*n,e[1]+=o*n),this.w=this.s=this.i=null}return this}},{key:"resetSelf",value:function(){var t=arguments.length>0&&void 0!==arguments[0]?arguments[0]:1,n=arguments.length>1&&void 0!==arguments[1]?arguments[1]:0,e=arguments.length>2&&void 0!==arguments[2]?arguments[2]:0,r=arguments.length>3&&void 0!==arguments[3]?arguments[3]:1,i=arguments.length>4&&void 0!==arguments[4]?arguments[4]:0,u=arguments.length>5&&void 0!==arguments[5]?arguments[5]:0,o=this.m;return o[0]=t,o[1]=n,o[2]=e,o[3]=r,o[4]=i,o[5]=u,this.w=this.s=this.i=null,this}},{key:"recomposeSelf",value:function(){var t=arguments.length>0&&void 0!==arguments[0]?arguments[0]:null,n=arguments.length>1&&void 0!==arguments[1]?arguments[1]:null,e=arguments.length>2&&void 0!==arguments[2]?arguments[2]:null,r=arguments.length>3&&void 0!==arguments[3]?arguments[3]:null,i=arguments.length>4&&void 0!==arguments[4]?arguments[4]:null;return this.isIdentity||this.resetSelf(),t&&(t.x||t.y)&&this.translateSelf(t.x,t.y),n&&this.rotateSelf(n),e&&(e.x&&this.skewSelf(e.x,0),e.y&&this.skewSelf(0,e.y)),!r||1===r.x&&1===r.y||this.scaleSelf(r.x,r.y),i&&(i.x||i.y)&&this.translateSelf(i.x,i.y),this}},{key:"decompose",value:function(){var t=arguments.length>0&&void 0!==arguments[0]?arguments[0]:0,n=arguments.length>1&&void 0!==arguments[1]?arguments[1]:0,e=this.m,r=e[0]*e[0]+e[1]*e[1],i=[[e[0],e[1]],[e[2],e[3]]],u=F(r);if(0===u)return{origin:{x:d(e[4]),y:d(e[5])},translate:{x:d(t),y:d(n)},scale:{x:0,y:0},skew:{x:0,y:0},rotate:0};i[0][0]/=u,i[0][1]/=u;var o=e[0]*e[3]-e[1]*e[2]<0;o&&(u=-u);var a=i[0][0]*i[1][0]+i[0][1]*i[1][1];i[1][0]-=i[0][0]*a,i[1][1]-=i[0][1]*a;var l=F(i[1][0]*i[1][0]+i[1][1]*i[1][1]);if(0===l)return{origin:{x:d(e[4]),y:d(e[5])},translate:{x:d(t),y:d(n)},scale:{x:d(u),y:0},skew:{x:0,y:0},rotate:0};i[1][0]/=l,i[1][1]/=l,a/=l;var s=0;return i[1][1]<0?(s=j(i[1][1])*R,i[0][1]<0&&(s=360-s)):s=M(i[0][1])*R,o&&(s=-s),a=E(a,F(i[0][0]*i[0][0]+i[0][1]*i[0][1]))*R,o&&(a=-a),{origin:{x:d(e[4]),y:d(e[5])},translate:{x:d(t),y:d(n)},scale:{x:d(u),y:d(l)},skew:{x:d(a),y:0},rotate:d(s)}}},{key:"clone",value:function(){var t=this.m;return new this.constructor(t[0],t[1],t[2],t[3],t[4],t[5])}},{key:"toString",value:function(){var t=arguments.length>0&&void 0!==arguments[0]?arguments[0]:" ";if(null===this.s){var n=this.m.map((function(t){return d(t)}));1===n[0]&&0===n[1]&&0===n[2]&&1===n[3]?this.s="translate("+n[4]+t+n[5]+")":this.s="matrix("+n.join(t)+")"}return this.s}}],[{key:"create",value:function(t){return t?Array.isArray(t)?f(this,v(t)):t instanceof this?t.clone():(new this).recomposeSelf(t.origin,t.rotate,t.skew,t.scale,t.translate):new this}}]),t}();function T(t,n,e){return t>=.5?e:n}function q(t,n,e){return 0===t||n===e?n:t*(e-n)+n}function B(t,n,e){var r=q(t,n,e);return r<=0?0:r}function L(t,n,e){var r=q(t,n,e);return r<=0?0:r>=1?1:r}function C(t,n,e){return 0===t?n:1===t?e:{x:q(t,n.x,e.x),y:q(t,n.y,e.y)}}function D(t,n,e){var r=function(t,n,e){return Math.round(q(t,n,e))}(t,n,e);return r<=0?0:r>=255?255:r}function z(t,n,e){return 0===t?n:1===t?e:{r:D(t,n.r,e.r),g:D(t,n.g,e.g),b:D(t,n.b,e.b),a:q(t,null==n.a?1:n.a,null==e.a?1:e.a)}}function V(t,n){for(var e=[],r=0;r<t;r++)e.push(n);return e}function G(t,n){if(--n<=0)return t;var e=(t=Object.assign([],t)).length;do{for(var r=0;r<e;r++)t.push(t[r])}while(--n>0);return t}var Y,$=function(){function t(n){r(this,t),this.list=n,this.length=n.length}return u(t,[{key:"setAttribute",value:function(t,n){for(var e=this.list,r=0;r<this.length;r++)e[r].setAttribute(t,n)}},{key:"removeAttribute",value:function(t){for(var n=this.list,e=0;e<this.length;e++)n[e].removeAttribute(t)}},{key:"style",value:function(t,n){for(var e=this.list,r=0;r<this.length;r++)e[r].style[t]=n}}]),t}(),U=/-./g,Q=function(t,n){return n.toUpperCase()};function H(t){return"function"==typeof t?t:T}function J(t){return t?"function"==typeof t?t:Array.isArray(t)?function(t){var n=arguments.length>1&&void 0!==arguments[1]?arguments[1]:b;if(!Array.isArray(t))return n;switch(t.length){case 1:return _(t[0])||n;case 2:return _(t[0],t[1])||n;case 4:return x(t[0],t[1],t[2],t[3])||n}return n}(t,null):function(t,n){var e=arguments.length>2&&void 0!==arguments[2]?arguments[2]:b;switch(t){case"linear":return b;case"steps":return _(n.steps||1,n.jump||0)||e;case"bezier":case"cubic-bezier":return x(n.x1||0,n.y1||0,n.x2||0,n.y2||0)||e}return e}(t.type,t.value,null):null}function Z(t,n,e){var r=arguments.length>3&&void 0!==arguments[3]&&arguments[3],i=n.length-1;if(t<=n[0].t)return r?[0,0,n[0].v]:n[0].v;if(t>=n[i].t)return r?[i,1,n[i].v]:n[i].v;var u,o=n[0],a=null;for(u=1;u<=i;u++){if(!(t>n[u].t)){a=n[u];break}o=n[u]}return null==a?r?[i,1,n[i].v]:n[i].v:o.t===a.t?r?[u,1,a.v]:a.v:(t=(t-o.t)/(a.t-o.t),o.e&&(t=o.e(t)),r?[u,t,e(t,o.v,a.v)]:e(t,o.v,a.v))}function K(t,n){var e=arguments.length>2&&void 0!==arguments[2]?arguments[2]:null;return t&&t.length?"function"!=typeof n?null:("function"!=typeof e&&(e=null),function(r){var i=Z(r,t,n);return null!=i&&e&&(i=e(i)),i}):null}function W(t,n){return t.t-n.t}function X(t,n,r,i,u){var o,a="@"===r[0],l="#"===r[0],s=Y[r],f=T;switch(a?(o=r.substr(1),r=o.replace(U,Q)):l&&(r=r.substr(1)),e(s)){case"function":if(f=s(i,u,Z,J,r,a,n,t),l)return f;break;case"string":f=K(i,H(s));break;case"object":if((f=K(i,H(s.i),s.f))&&"function"==typeof s.u)return s.u(n,f,r,a,t)}return f?function(t,n,e){if(arguments.length>3&&void 0!==arguments[3]&&arguments[3])return t instanceof $?function(r){return t.style(n,e(r))}:function(r){return t.style[n]=e(r)};if(Array.isArray(n)){var r=n.length;return function(i){var u=e(i);if(null==u)for(var o=0;o<r;o++)t[o].removeAttribute(n);else for(var a=0;a<r;a++)t[a].setAttribute(n,u)}}return function(r){var i=e(r);null==i?t.removeAttribute(n):t.setAttribute(n,i)}}(n,r,f,a):null}function tt(t,n,r,i){if(!i||"object"!==e(i))return null;var u=null,o=null;return Array.isArray(i)?o=function(t){if(!t||!t.length)return null;for(var n=0;n<t.length;n++)t[n].e&&(t[n].e=J(t[n].e));return t.sort(W)}(i):(o=i.keys,u=i.data||null),o?X(t,n,r,o,u):null}function nt(t,n,e){if(!e)return null;var r=[];for(var i in e)if(e.hasOwnProperty(i)){var u=tt(t,n,i,e[i]);u&&r.push(u)}return r.length?r:null}function et(t,n){if(!n.settings.duration||n.settings.duration<0)return null;var e,r,i,u,o,a=function(t,n){if(!n)return null;var e=[];if(Array.isArray(n))for(var r=n.length,i=0;i<r;i++){var u=n[i];if(2===u.length){var o=null;if("string"==typeof u[0])o=t.getElementById(u[0]);else if(Array.isArray(u[0])){o=[];for(var a=0;a<u[0].length;a++)if("string"==typeof u[0][a]){var l=t.getElementById(u[0][a]);l&&o.push(l)}o=o.length?1===o.length?o[0]:new $(o):null}if(o){var s=nt(t,o,u[1]);s&&(e=e.concat(s))}}}else for(var f in n)if(n.hasOwnProperty(f)){var c=t.getElementById(f);if(c){var h=nt(t,c,n[f]);h&&(e=e.concat(h))}}return e.length?e:null}(t,n.elements);return a?(e=a,r=n.settings,i=r.duration,u=e.length,o=null,function(t,n){var a=r.iterations||1/0,l=(r.alternate&&a%2==0)^r.direction>0?i:0,s=t%i,f=1+(t-s)/i;n*=r.direction,r.alternate&&f%2==0&&(n=-n);var c=!1;if(f>a)s=l,c=!0,-1===r.fill&&(s=r.direction>0?0:i);else if(n<0&&(s=i-s),s===o)return!1;o=s;for(var h=0;h<u;h++)e[h](s);return c}):null}function rt(t,n){if(Y=n,!t||!t.root||!Array.isArray(t.animations))return null;var e=function(t){for(var n=document.getElementsByTagName("svg"),e=0;e<n.length;e++)if(n[e].id===t.root&&!n[e].svgatorAnimation)return n[e].svgatorAnimation=!0,n[e];return null}(t);if(!e)return null;var r=t.animations.map((function(t){return et(e,t)})).filter((function(t){return!!t}));return r.length?{svg:e,animations:r,animationSettings:t.animationSettings,options:t.options||void 0}:null}function it(t){return+("0x"+(t.replace(/[^0-9a-fA-F]+/g,"")||27))}function ut(t,n,e){return!t||!e||n>t.length?t:t.substring(0,n)+ut(t.substring(n+1),e,e)}function ot(t){var n=arguments.length>1&&void 0!==arguments[1]?arguments[1]:27;return!t||t%n?t%n:ot(t/n,n)}function at(t,n,e){if(t&&t.length){var r=it(e),i=it(n),u=ot(r)+5,o=ut(t,ot(r,5),u);return o=o.replace(/\x7c$/g,"==").replace(/\x2f$/g,"="),o=function(t,n,e){var r=+("0x"+t.substring(0,4));t=t.substring(4);for(var i=n%r+e%27,u=[],o=0;o<t.length;o+=2)if("|"!==t[o]){var a=+("0x"+t[o]+t[o+1])-i;u.push(a)}else{var l=+("0x"+t.substring(o+1,o+1+4))-i;o+=3,u.push(l)}return String.fromCharCode.apply(String,u)}(o=(o=atob(o)).replace(/[\x41-\x5A]/g,""),i,r),o=JSON.parse(o)}}var lt=[{key:"alternate",def:!1},{key:"fill",def:1},{key:"iterations",def:0},{key:"direction",def:1},{key:"speed",def:1},{key:"fps",def:100}],st=function(){function t(n,e){var i=this,u=arguments.length>2&&void 0!==arguments[2]?arguments[2]:null;r(this,t),this._id=0,this._running=!1,this._rollingBack=!1,this._animations=n,this._settings=e,(!u||u<"2022-05-02")&&delete this._settings.speed,lt.forEach((function(t){i._settings[t.key]=i._settings[t.key]||t.def})),this.duration=e.duration,this.offset=e.offset||0,this.rollbackStartOffset=0}return u(t,[{key:"alternate",get:function(){return this._settings.alternate}},{key:"fill",get:function(){return this._settings.fill}},{key:"iterations",get:function(){return this._settings.iterations}},{key:"direction",get:function(){return this._settings.direction}},{key:"speed",get:function(){return this._settings.speed}},{key:"fps",get:function(){return this._settings.fps}},{key:"maxFiniteDuration",get:function(){return this.iterations>0?this.iterations*this.duration:this.duration}},{key:"_apply",value:function(t){for(var n=arguments.length>1&&void 0!==arguments[1]?arguments[1]:{},e=this._animations,r=e.length,i=0,u=0;u<r;u++)n[u]?i++:(n[u]=e[u](t,1),n[u]&&i++);return i}},{key:"_rollback",value:function(t){var n=this,e=1/0,r=null;this.rollbackStartOffset=t,this._rollingBack=!0,this._running=!0;this._id=window.requestAnimationFrame((function i(u){if(n._rollingBack){null==r&&(r=u);var o=Math.round(t-(u-r)*n.speed);if(o>n.duration&&e!==1/0){var a=!!n.alternate&&o/n.duration%2>1,l=o%n.duration;o=(l+=a?n.duration:0)||n.duration}var s=(n.fps?1e3/n.fps:0)*n.speed,f=Math.max(0,o);f<=e-s&&(n.offset=f,e=f,n._apply(f));var c=n.iterations>0&&-1===n.fill&&o>=n.maxFiniteDuration;(o<=0||n.offset<o||c)&&n.stop(),n._id=window.requestAnimationFrame(i)}}))}},{key:"_start",value:function(){var t=this,n=arguments.length>0&&void 0!==arguments[0]?arguments[0]:0,e=-1/0,r=null,i={};this._running=!0;var u=function u(o){null==r&&(r=o);var a=Math.round((o-r)*t.speed+n),l=(t.fps?1e3/t.fps:0)*t.speed;if(a>=e+l&&!t._rollingBack&&(t.offset=a,e=a,t._apply(a,i)===t._animations.length))return void t.pause(!0);t._id=window.requestAnimationFrame(u)};this._id=window.requestAnimationFrame(u)}},{key:"_pause",value:function(){this._id&&window.cancelAnimationFrame(this._id),this._running=!1}},{key:"play",value:function(){if(!this._running)return this._rollingBack?this._rollback(this.offset):this._start(this.offset)}},{key:"stop",value:function(){this._pause(),this.offset=0,this.rollbackStartOffset=0,this._rollingBack=!1,this._apply(0)}},{key:"reachedToEnd",value:function(){return this.iterations>0&&this.offset>=this.iterations*this.duration}},{key:"restart",value:function(){var t=arguments.length>0&&void 0!==arguments[0]&&arguments[0];this.stop(t),this.play(t)}},{key:"pause",value:function(){this._pause()}},{key:"reverse",value:function(){this.direction=-this.direction}}],[{key:"build",value:function(t,n){delete t.animationSettings,t.options=at(t.options,t.root,"5c7f360c"),t.animations.map((function(n){n.settings=at(n.s,t.root,"5c7f360c"),delete n.s,t.animationSettings||(t.animationSettings=n.settings)}));var e=t.version;if(!(t=rt(t,n)))return null;var r=t.options||{},i=new this(t.animations,t.animationSettings,e);return{el:t.svg,options:r,player:i}}},{key:"push",value:function(t){return this.build(t)}},{key:"init",value:function(){var t=this,n=window.__SVGATOR_PLAYER__&&window.__SVGATOR_PLAYER__["5c7f360c"];Array.isArray(n)&&n.splice(0).forEach((function(n){return t.build(n)}))}}]),t}();function ft(t){return d(t)+""}function ct(t){var n=arguments.length>1&&void 0!==arguments[1]?arguments[1]:" ";return t&&t.length?t.map(ft).join(n):""}function ht(t){if(!t)return"transparent";if(null==t.a||t.a>=1){var n=function(t){return 1===(t=parseInt(t).toString(16)).length?"0"+t:t},e=function(t){return t.charAt(0)===t.charAt(1)},r=n(t.r),i=n(t.g),u=n(t.b);return e(r)&&e(i)&&e(u)&&(r=r.charAt(0),i=i.charAt(0),u=u.charAt(0)),"#"+r+i+u}return"rgba("+t.r+","+t.g+","+t.b+","+t.a+")"}function vt(t){return t?"url(#"+t+")":"none"}!function(){for(var t=0,n=["ms","moz","webkit","o"],e=0;e<n.length&&!window.requestAnimationFrame;++e)window.requestAnimationFrame=window[n[e]+"RequestAnimationFrame"],window.cancelAnimationFrame=window[n[e]+"CancelAnimationFrame"]||window[n[e]+"CancelRequestAnimationFrame"];window.requestAnimationFrame||(window.requestAnimationFrame=function(n){var e=Date.now(),r=Math.max(0,16-(e-t)),i=window.setTimeout((function(){n(e+r)}),r);return t=e+r,i},window.cancelAnimationFrame=window.clearTimeout)}();var yt={f:null,i:function(t,n,e){return 0===t?n:1===t?e:{x:B(t,n.x,e.x),y:B(t,n.y,e.y)}},u:function(t,n){return function(e){var r=n(e);t.setAttribute("rx",ft(r.x)),t.setAttribute("ry",ft(r.y))}}},gt={f:null,i:function(t,n,e){return 0===t?n:1===t?e:{width:B(t,n.width,e.width),height:B(t,n.height,e.height)}},u:function(t,n){return function(e){var r=n(e);t.setAttribute("width",ft(r.width)),t.setAttribute("height",ft(r.height))}}};Object.freeze({M:2,L:2,Z:0,H:1,V:1,C:6,Q:4,T:2,S:4,A:7});var dt={},pt=null;function mt(t){var n=function(){if(pt)return pt;if("object"!==("undefined"==typeof document?"undefined":e(document))||!document.createElementNS)return{};var t=document.createElementNS("http://www.w3.org/2000/svg","svg");return t&&t.style?(t.style.position="absolute",t.style.opacity="0.01",t.style.zIndex="-9999",t.style.left="-9999px",t.style.width="1px",t.style.height="1px",pt={svg:t}):{}}().svg;if(!n)return function(t){return null};var r=document.createElementNS(n.namespaceURI,"path");r.setAttributeNS(null,"d",t),r.setAttributeNS(null,"fill","none"),r.setAttributeNS(null,"stroke","none"),n.appendChild(r);var i=r.getTotalLength();return function(t){var n=r.getPointAtLength(i*t);return{x:n.x,y:n.y}}}function bt(t){return dt[t]?dt[t]:dt[t]=mt(t)}function wt(t,n,e,r){if(!t||!r)return!1;var i=["M",t.x,t.y];if(n&&e&&(i.push("C"),i.push(n.x),i.push(n.y),i.push(e.x),i.push(e.y)),n?!e:e){var u=n||e;i.push("Q"),i.push(u.x),i.push(u.y)}return n||e||i.push("L"),i.push(r.x),i.push(r.y),i.join(" ")}function xt(t,n,e,r){var i=arguments.length>4&&void 0!==arguments[4]?arguments[4]:1,u=wt(t,n,e,r),o=bt(u);try{return o(i)}catch(t){return null}}function At(t,n,e){return t+(n-t)*e}function kt(t,n,e){var r=arguments.length>3&&void 0!==arguments[3]&&arguments[3],i={x:At(t.x,n.x,e),y:At(t.y,n.y,e)};return r&&(i.a=_t(t,n)),i}function _t(t,n){return Math.atan2(n.y-t.y,n.x-t.x)}function St(t,n,e,r){var i=1-r;return i*i*t+2*i*r*n+r*r*e}function Ot(t,n,e,r){return 2*(1-r)*(n-t)+2*r*(e-n)}function jt(t,n,e,r){var i=arguments.length>4&&void 0!==arguments[4]&&arguments[4],u=xt(t,n,null,e,r);return u||(u={x:St(t.x,n.x,e.x,r),y:St(t.y,n.y,e.y,r)}),i&&(u.a=Mt(t,n,e,r)),u}function Mt(t,n,e,r){return Math.atan2(Ot(t.y,n.y,e.y,r),Ot(t.x,n.x,e.x,r))}function Pt(t,n,e,r,i){var u=i*i;return i*u*(r-t+3*(n-e))+3*u*(t+e-2*n)+3*i*(n-t)+t}function Et(t,n,e,r,i){var u=1-i;return 3*(u*u*(n-t)+2*u*i*(e-n)+i*i*(r-e))}function It(t,n,e,r,i){var u=arguments.length>5&&void 0!==arguments[5]&&arguments[5],o=xt(t,n,e,r,i);return o||(o={x:Pt(t.x,n.x,e.x,r.x,i),y:Pt(t.y,n.y,e.y,r.y,i)}),u&&(o.a=Rt(t,n,e,r,i)),o}function Rt(t,n,e,r,i){return Math.atan2(Et(t.y,n.y,e.y,r.y,i),Et(t.x,n.x,e.x,r.x,i))}function Ft(t,n,e){var r=arguments.length>3&&void 0!==arguments[3]&&arguments[3];if(Tt(n)){if(qt(e))return jt(n,e.start,e,t,r)}else if(Tt(e)){if(Bt(n))return jt(n,n.end,e,t,r)}else{if(Bt(n))return qt(e)?It(n,n.end,e.start,e,t,r):jt(n,n.end,e,t,r);if(qt(e))return jt(n,e.start,e,t,r)}return kt(n,e,t,r)}function Nt(t,n,e){var r=Ft(t,n,e,!0);return r.a=function(t){return arguments.length>1&&void 0!==arguments[1]&&arguments[1]?t+Math.PI:t}(r.a)/m,r}function Tt(t){return!t.type||"corner"===t.type}function qt(t){return null!=t.start&&!Tt(t)}function Bt(t){return null!=t.end&&!Tt(t)}var Lt=new N;var Ct={f:ft,i:q},Dt={f:ft,i:L};function zt(t,n,e){return t.map((function(t){return function(t,n,e){var r=t.v;if(!r||"g"!==r.t||r.s||!r.v||!r.r)return t;var i=e.getElementById(r.r),u=i&&i.querySelectorAll("stop")||[];return r.s=r.v.map((function(t,n){var e=u[n]&&u[n].getAttribute("offset");return{c:t,o:e=d(parseInt(e)/100)}})),delete r.v,t}(t,0,e)}))}var Vt={gt:"gradientTransform",c:{x:"cx",y:"cy"},rd:"r",f:{x:"x1",y:"y1"},to:{x:"x2",y:"y2"}};function Gt(t,n,r,i,u,o,a,l){return zt(t,0,l),n=function(t,n,e){for(var r,i,u,o=t.length-1,a={},l=0;l<=o;l++)(r=t[l]).e&&(r.e=n(r.e)),r.v&&"g"===(i=r.v).t&&i.r&&(u=e.getElementById(i.r))&&(a[i.r]={e:u,s:u.querySelectorAll("stop")});return a}(t,i,l),function(i){var u=r(i,t,Yt);if(!u)return"none";if("c"===u.t)return ht(u.v);if("g"===u.t){if(!n[u.r])return vt(u.r);var o=n[u.r];return function(t,n){for(var e=t.s,r=e.length;r<n.length;r++){var i=e[e.length-1].cloneNode();i.id=Qt(i.id),t.e.appendChild(i),e=t.s=t.e.querySelectorAll("stop")}for(var u=0,o=e.length,a=n.length-1;u<o;u++)e[u].setAttribute("stop-color",ht(n[Math.min(u,a)].c)),e[u].setAttribute("offset",n[Math.min(u,a)].o)}(o,u.s),Object.keys(Vt).forEach((function(t){if(void 0!==u[t])if("object"!==e(Vt[t])){var n,r="gt"===t?(n=u[t],Array.isArray(n)?"matrix("+n.join(" ")+")":""):u[t],i=Vt[t];o.e.setAttribute(i,r)}else Object.keys(Vt[t]).forEach((function(n){if(void 0!==u[t][n]){var e=u[t][n],r=Vt[t][n];o.e.setAttribute(r,e)}}))})),vt(u.r)}return"none"}}function Yt(t,e,r){if(0===t)return e;if(1===t)return r;if(e&&r){var i=e.t;if(i===r.t)switch(e.t){case"c":return{t:i,v:z(t,e.v,r.v)};case"g":if(e.r===r.r){var u={t:i,s:$t(t,e.s,r.s),r:e.r};return e.gt&&r.gt&&(u.gt=function(t,n,e){var r=n.length;if(r!==e.length)return T(t,n,e);for(var i=new Array(r),u=0;u<r;u++)i[u]=q(t,n[u],e[u]);return i}(t,e.gt,r.gt)),e.c?(u.c=C(t,e.c,r.c),u.rd=B(t,e.rd,r.rd)):e.f&&(u.f=C(t,e.f,r.f),u.to=C(t,e.to,r.to)),u}}if("c"===e.t&&"g"===r.t||"c"===r.t&&"g"===e.t){var o="c"===e.t?e:r,a="g"===e.t?n({},e):n({},r),l=a.s.map((function(t){return{c:o.v,o:t.o}}));return a.s="c"===e.t?$t(t,l,a.s):$t(t,a.s,l),a}}return T(t,e,r)}function $t(t,n,e){if(n.length===e.length)return n.map((function(n,r){return Ut(t,n,e[r])}));for(var r=Math.max(n.length,e.length),i=[],u=0;u<r;u++){var o=Ut(t,n[Math.min(u,n.length-1)],e[Math.min(u,e.length-1)]);i.push(o)}return i}function Ut(t,n,e){return{o:L(t,n.o,e.o||0),c:z(t,n.c,e.c||{})}}function Qt(t){return t.replace(/-fill-([0-9]+)$/,(function(t,n){return"-fill-"+(+n+1)}))}var Ht={fill:Gt,"fill-opacity":Dt,stroke:Gt,"stroke-opacity":Dt,"stroke-width":Ct,"stroke-dashoffset":{f:ft,i:q},"stroke-dasharray":{f:function(t){var n=arguments.length>1&&void 0!==arguments[1]?arguments[1]:" ";return t&&t.length>0&&(t=t.map((function(t){return d(t,4)}))),ct(t,n)},i:function(t,n,e){var r,i,u,o=n.length,a=e.length;if(o!==a)if(0===o)n=V(o=a,0);else if(0===a)a=o,e=V(o,0);else{var l=(u=(r=o)*(i=a)/function(t,n){for(var e;n;)e=n,n=t%n,t=e;return t||1}(r,i))<0?-u:u;n=G(n,Math.floor(l/o)),e=G(e,Math.floor(l/a)),o=a=l}for(var s=[],f=0;f<o;f++)s.push(d(B(t,n[f],e[f])));return s}},opacity:Dt,transform:function(t,n,r,i){if(!(t=function(t,n){if(!t||"object"!==e(t))return null;var r=!1;for(var i in t)t.hasOwnProperty(i)&&(t[i]&&t[i].length?(t[i].forEach((function(t){t.e&&(t.e=n(t.e))})),r=!0):delete t[i]);return r?t:null}(t,i)))return null;var u=function(e,i,u){var o=arguments.length>3&&void 0!==arguments[3]?arguments[3]:null;return t[e]?r(i,t[e],u):n&&n[e]?n[e]:o};return n&&n.a&&t.o?function(n){var e=r(n,t.o,Nt);return Lt.recomposeSelf(e,u("r",n,q,0)+e.a,u("k",n,C),u("s",n,C),u("t",n,C)).toString()}:function(t){return Lt.recomposeSelf(u("o",t,Ft,null),u("r",t,q,0),u("k",t,C),u("s",t,C),u("t",t,C)).toString()}},r:Ct,"#size":gt,"#radius":yt,_:function(t,n){if(Array.isArray(t))for(var e=0;e<t.length;e++)this[t[e]]=n;else this[t]=n}},Jt=function(t){!function(t,n){if("function"!=typeof n&&null!==n)throw new TypeError("Super expression must either be null or a function");t.prototype=Object.create(n&&n.prototype,{constructor:{value:t,writable:!0,configurable:!0}}),n&&l(t,n)}(o,t);var n,e,i=(n=o,e=s(),function(){var t,r=a(n);if(e){var i=a(this).constructor;t=Reflect.construct(r,arguments,i)}else t=r.apply(this,arguments);return c(this,t)});function o(){return r(this,o),i.apply(this,arguments)}return u(o,null,[{key:"build",value:function(t){var n=h(a(o),"build",this).call(this,t,Ht);if(!n)return null;n.el,n.options,function(t,n,e){t.play()}(n.player)}}]),o}(st);return Jt.init(),Jt}));
(function(s,i,o,w,a,b){w[o]=w[o]||{};w[o][s]=w[o][s]||[];w[o][s].push(i);})('5c7f360c',{"root":"ebS5gOZR4pF1","version":"2022-05-04","animations":[{"elements":{"ebS5gOZR4pF3":{"transform":{"data":{"o":{"x":7.000629,"y":11.999584,"type":"corner"},"t":{"x":-7.000629,"y":-11.999584}},"keys":{"s":[{"t":0,"v":{"x":0.05,"y":0.05},"e":[0.03,0.94,0,0.89]},{"t":8000,"v":{"x":1,"y":1}}]}},"opacity":[{"t":0,"v":0.45,"e":[0.455,0.03,0.515,0.955]},{"t":1000,"v":1,"e":[0.455,0.03,0.515,0.955]},{"t":2000,"v":0.45,"e":[0.455,0.03,0.515,0.955]},{"t":3000,"v":1,"e":[0.455,0.03,0.515,0.955]},{"t":4000,"v":0.45,"e":[0.455,0.03,0.515,0.955]},{"t":5000,"v":1,"e":[0.455,0.03,0.515,0.955]},{"t":6000,"v":0.45,"e":[0.455,0.03,0.515,0.955]},{"t":7000,"v":1,"e":[0.455,0.03,0.515,0.955]},{"t":8000,"v":0.34,"e":[0.635,0,0.405,0.995]}]}},"s":"MFDA1ZGI5NjBhMmIzYjIA5ZmIyYTdhZGFjNjAT3ODc2NmU2ZTZlVjZhCNjBhMmE3YjBIYTNhMRWIySmE3T2FkYWM2MDOc4NmY2YTYwYTdiMmEOzSWIwOWZiMmE3YWRhMY1liMTYwNzhCNmY2YUUc2MGE0YTdhYWFhNjUA3ODZmNmE2MDlmYWFJiMmEzYjBhY1A5ZmIySYTM2MDc4YTQ5ZmFhYCjFhMzZhNjBiMWFlYTWNhM2EyRTYwNzhJNmYB2YTYwYTRhZWIxNjA3YOFg2ZkQ2ZTZlYmI/"}],"options":"MBDAxMDg4MmY4MDgxNmKU3ZjgxVjJmNDcyZjcN5N2M2ZUE3MTJmOGE/P"},'__SVGATOR_PLAYER__',window)
]]></script>
</svg>
